<svg xmlns="http://www.w3.org/2000/svg" xmlns:xlink="http://www.w3.org/1999/xlink" viewBox="0 0 64 64"><defs><style>      .cls-1 {        fill: url(#Degradado_sin_nombre_9-2);      }      .cls-2 {        fill: url(#Degradado_sin_nombre_9-4);      }      .cls-3 {        fill: url(#Degradado_sin_nombre_9-3);      }      .cls-4 {        fill: url(#Degradado_sin_nombre_9);      }    </style><linearGradient id="Degradado_sin_nombre_9" data-name="Degradado sin nombre 9" x1="69.2" y1="-16.2" x2="16" y2="46" gradientTransform="translate(0 66) scale(1 -1)" gradientUnits="userSpaceOnUse"><stop offset="0" stop-color="#D4AF37"></stop><stop offset="1" stop-color="#D4AF37"></stop></linearGradient><linearGradient id="Degradado_sin_nombre_9-2" data-name="Degradado sin nombre 9" x1="53.4" y1="-29.7" x2=".2" y2="32.5" xlink:href="#Degradado_sin_nombre_9"></linearGradient><linearGradient id="Degradado_sin_nombre_9-3" data-name="Degradado sin nombre 9" x1="75.8" y1="-10.5" x2="22.6" y2="51.7" xlink:href="#Degradado_sin_nombre_9"></linearGradient><linearGradient id="Degradado_sin_nombre_9-4" data-name="Degradado sin nombre 9" x1="91.6" y1="3" x2="38.4" y2="65.2" xlink:href="#Degradado_sin_nombre_9"></linearGradient></defs><g><g id="Capa_1"><g><path class="cls-4" d="M30,10c0-4.4-3.6-8-8-8h-12C5.6,2,2,5.6,2,10v20c0,4.4,3.6,8,8,8h12c4.4,0,8-3.6,8-8V10Z"></path><path class="cls-1" d="M30,50c0-4.4-3.6-8-8-8h-12c-4.4,0-8,3.6-8,8v4c0,4.4,3.6,8,8,8h12c4.4,0,8-3.6,8-8v-4Z"></path><path class="cls-3" d="M34,54c0,4.4,3.6,8,8,8h12c4.4,0,8-3.6,8-8v-20c0-4.4-3.6-8-8-8h-12c-4.4,0-8,3.6-8,8v20Z"></path><path class="cls-2" d="M34,14c0,4.4,3.6,8,8,8h12c4.4,0,8-3.6,8-8v-4c0-4.4-3.6-8-8-8h-12c-4.4,0-8,3.6-8,8v4Z"></path></g></g></g></svg>