<svg xmlns="http://www.w3.org/2000/svg" xmlns:xlink="http://www.w3.org/1999/xlink" viewBox="0 0 512 512"><defs><style>      .cls-1 {        fill: url(#Degradado_sin_nombre_9-2);      }      .cls-2 {        fill: url(#Degradado_sin_nombre_9);      }    </style><linearGradient id="Degradado_sin_nombre_9" data-name="Degradado sin nombre 9" x1="80" y1="416" x2="432" y2="416" gradientUnits="userSpaceOnUse"><stop offset="0" stop-color="#D4AF37"></stop><stop offset="1" stop-color="#D4AF37"></stop></linearGradient><linearGradient id="Degradado_sin_nombre_9-2" data-name="Degradado sin nombre 9" x1="0" y1="176" x2="512" y2="176" xlink:href="#Degradado_sin_nombre_9"></linearGradient></defs><g><g id="Layer_1"><path class="cls-2" d="M384,464H128c-26.5,0-48-21.5-48-48v-48h352v48c0,26.5-21.5,48-48,48Z"></path><path class="cls-1" d="M472,128c-20.3,0-36.8,15.1-39.5,34.7-41.4-2.3-102.1-17.2-150.6-76.4,8.6-7.3,14.1-18.1,14.1-30.3,0-22.1-17.9-40-40-40s-40,17.9-40,40,5.5,22.9,14.1,30.3c-48.5,59.2-109.3,74.1-150.6,76.4-2.6-19.5-19.2-34.7-39.5-34.7S0,145.9,0,168s17.9,40,40,40,3.3-.3,5-.5l35,128.5h352l35-128.5c1.6.2,3.3.5,5,.5,22.1,0,40-17.9,40-40s-17.9-40-40-40ZM296.8,233.6l-28,37.3c-6.4,8.5-19.2,8.5-25.6,0l-28-37.3c-4.3-5.7-4.3-13.5,0-19.2l28-37.3c6.4-8.5,19.2-8.5,25.6,0l28,37.3c4.3,5.7,4.3,13.5,0,19.2Z"></path></g></g></svg>