<svg width="162" xmlns="http://www.w3.org/2000/svg" height="40" id="screenshot-1cd32a24-47e5-8044-8005-0ccdb4b517c7" fill="none" version="1.1"><style>@font-face{font-family:&apos;Montserrat&apos;;font-style:normal;font-weight:400;font-display:block;src:url(https://design.penpot.app/internal/gfonts/font/montserrat/v26/JTUHjIg1_i6t8kCHKm4532VJOt5-QNFgpCtr6Hw0aXpsog.woff2) format(&apos;woff2&apos;);unicode-range:U+0460-052F, U+1C80-1C88, U+20B4, U+2DE0-2DFF, U+A640-A69F, U+FE2E-FE2F}@font-face{font-family:&apos;Montserrat&apos;;font-style:normal;font-weight:400;font-display:block;src:url(https://design.penpot.app/internal/gfonts/font/montserrat/v26/JTUHjIg1_i6t8kCHKm4532VJOt5-QNFgpCtr6Hw9aXpsog.woff2) format(&apos;woff2&apos;);unicode-range:U+0301, U+0400-045F, U+0490-0491, U+04B0-04B1, U+2116}@font-face{font-family:&apos;Montserrat&apos;;font-style:normal;font-weight:400;font-display:block;src:url(https://design.penpot.app/internal/gfonts/font/montserrat/v26/JTUHjIg1_i6t8kCHKm4532VJOt5-QNFgpCtr6Hw2aXpsog.woff2) format(&apos;woff2&apos;);unicode-range:U+0102-0103, U+0110-0111, U+0128-0129, U+0168-0169, U+01A0-01A1, U+01AF-01B0, U+0300-0301, U+0303-0304, U+0308-0309, U+0323, U+0329, U+1EA0-1EF9, U+20AB}@font-face{font-family:&apos;Montserrat&apos;;font-style:normal;font-weight:400;font-display:block;src:url(https://design.penpot.app/internal/gfonts/font/montserrat/v26/JTUHjIg1_i6t8kCHKm4532VJOt5-QNFgpCtr6Hw3aXpsog.woff2) format(&apos;woff2&apos;);unicode-range:U+0100-02AF, U+0304, U+0308, U+0329, U+1E00-1E9F, U+1EF2-1EFF, U+2020, U+20A0-20AB, U+20AD-20C0, U+2113, U+2C60-2C7F, U+A720-A7FF}@font-face{font-family:&apos;Montserrat&apos;;font-style:normal;font-weight:400;font-display:block;src:url(https://design.penpot.app/internal/gfonts/font/montserrat/v26/JTUHjIg1_i6t8kCHKm4532VJOt5-QNFgpCtr6Hw5aXo.woff2) format(&apos;woff2&apos;);unicode-range:U+0000-00FF, U+0131, U+0152-0153, U+02BB-02BC, U+02C6, U+02DA, U+02DC, U+0304, U+0308, U+0329, U+2000-206F, U+2074, U+20AC, U+2122, U+2191, U+2193, U+2212, U+2215, U+FEFF, U+FFFD}</style><g id="shape-1cd32a24-47e5-8044-8005-0ccdb4b517c7" data-testid="Multi-Lingual-Support"><g class="fills" id="fills-1cd32a24-47e5-8044-8005-0ccdb4b517c7"><rect rx="0" ry="0" width="162" height="40" class="frame-background"/></g><g class="frame-children"><g id="shape-1cd32a24-47e5-8044-8005-0ccc4553f505" data-testid="006-traduccion" style="fill: rgb(0, 0, 0);"><g id="shape-1cd32a24-47e5-8044-8005-0ccc455770d9" data-testid="svg-path"><path d="M35 18.387H22.138c-.201 0-.4.038-.588.063.025-.188.063-.387.063-.588V5a3.761 3.761 0 0 0-3.75-3.75H5A3.761 3.761 0 0 0 1.25 5v12.862A3.761 3.761 0 0 0 5 21.612h12.863c.2 0 .399-.037.587-.062-.025.188-.062.387-.062.587V35a3.761 3.761 0 0 0 3.75 3.75H35A3.761 3.761 0 0 0 38.75 35V22.137a3.761 3.761 0 0 0-3.75-3.75ZM16.225 9.075h-1.337c-.225 1.013-.738 2.562-1.863 4.213.75.799 1.7 1.575 2.9 2.275A1.25 1.25 0 0 1 15.3 17.9c-.212 0-.425-.063-.625-.175a15.395 15.395 0 0 1-3.25-2.487 15.068 15.068 0 0 1-3.25 2.487 1.244 1.244 0 0 1-.625.175c-.425 0-.85-.225-1.075-.625-.35-.6-.15-1.363.45-1.712 1.213-.7 2.15-1.476 2.9-2.275a12.87 12.87 0 0 1-1.863-4.213H6.625c-.687 0-1.25-.55-1.25-1.25 0-.688.563-1.25 1.25-1.25h3.55v-.763c0-.687.563-1.25 1.25-1.25.7 0 1.25.563 1.25 1.25v.763h3.55c.688 0 1.25.562 1.25 1.25 0 .7-.562 1.25-1.25 1.25Zm17.887 25.187c-.187.1-.4.15-.599.15-.438 0-.876-.237-1.1-.662l-1.501-2.775h-4.687l-1.5 2.775a1.245 1.245 0 0 1-1.688.512 1.244 1.244 0 0 1-.512-1.687l4.4-8.163c.325-.612.95-.987 1.65-.987.687 0 1.325.375 1.65.987l4.387 8.163c.326.6.101 1.362-.5 1.687Z" style="fill: rgb(0, 0, 0); fill-opacity: 1;" class="fills" id="fills-1cd32a24-47e5-8044-8005-0ccc455770d9"/></g><g id="shape-1cd32a24-47e5-8044-8005-0ccc4557c0b2" data-testid="svg-path"><path d="M11.425 11.15c.45-.775.725-1.5.888-2.075h-1.776c.176.575.451 1.3.888 2.075Z" style="fill: rgb(0, 0, 0); fill-opacity: 1;" class="fills" id="fills-1cd32a24-47e5-8044-8005-0ccc4557c0b2"/></g><g id="shape-1cd32a24-47e5-8044-8005-0ccc4558185a" data-testid="svg-path"><path d="M27.575 28.475h2l-1-1.863Z" style="fill: rgb(0, 0, 0); fill-opacity: 1;" class="fills" id="fills-1cd32a24-47e5-8044-8005-0ccc4558185a"/></g><g id="shape-1cd32a24-47e5-8044-8005-0ccc45589a87" data-testid="svg-path"><path d="M32.5 16.831c.69 0 1.25-.559 1.25-1.25V8.75c0-1.378-1.121-2.5-2.5-2.5h-6.83a1.25 1.25 0 1 0 0 2.5h6.83v6.831c0 .691.56 1.25 1.25 1.25Z" style="fill: rgb(0, 0, 0); fill-opacity: 1;" class="fills" id="fills-1cd32a24-47e5-8044-8005-0ccc45589a87"/></g><g id="shape-1cd32a24-47e5-8044-8005-0ccc4558f1b5" data-testid="svg-path"><path d="M7.5 23.169c-.69 0-1.25.559-1.25 1.25v6.831c0 1.378 1.121 2.5 2.5 2.5h6.83a1.25 1.25 0 1 0 0-2.5H8.75v-6.831c0-.691-.56-1.25-1.25-1.25Z" style="fill: rgb(0, 0, 0); fill-opacity: 1;" class="fills" id="fills-1cd32a24-47e5-8044-8005-0ccc4558f1b5"/></g></g><g class="text-container" id="shape-1cd32a24-47e5-8044-8005-0ccb89281206" data-testid="Multi-Lingual Support"><defs><pattern patternUnits="userSpaceOnUse" x="48" y="0" width="97.533" height="34.8" id="fill-0-render-35-0"><rect width="97.533" height="34.8" style="fill: rgb(255, 255, 255); fill-opacity: 1;"/></pattern><pattern patternUnits="userSpaceOnUse" x="48" y="0" width="97.533" height="34.8" id="fill-1-render-35-0"><rect width="97.533" height="34.8" style="fill: rgb(255, 255, 255); fill-opacity: 1;"/></pattern></defs><text x="48" y="17.4" dominant-baseline="ideographic" textLength="97.533" lengthAdjust="spacingAndGlyphs" style="text-transform: none; font-family: Montserrat; letter-spacing: normal; font-style: normal; font-weight: 400; white-space: pre; font-size: 14px; text-decoration: rgb(255, 255, 255); direction: ltr; fill: rgb(255, 255, 255); fill-opacity: 1;" class="fills" id="fills-1cd32a24-47e5-8044-8005-0ccb89281206">Multi-Lingual </text><defs><pattern patternUnits="userSpaceOnUse" x="48" y="0" width="97.533" height="34.8" id="fill-0-render-35-1"><rect width="97.533" height="34.8" style="fill: rgb(255, 255, 255); fill-opacity: 1;"/></pattern><pattern patternUnits="userSpaceOnUse" x="48" y="0" width="97.533" height="34.8" id="fill-1-render-35-1"><rect width="97.533" height="34.8" style="fill: rgb(255, 255, 255); fill-opacity: 1;"/></pattern></defs><text x="48" y="34.2" dominant-baseline="ideographic" textLength="57.3" lengthAdjust="spacingAndGlyphs" style="text-transform: none; font-family: Montserrat; letter-spacing: normal; font-style: normal; font-weight: 400; white-space: pre; font-size: 14px; text-decoration: rgb(255, 255, 255); direction: ltr; fill: rgb(255, 255, 255); fill-opacity: 1;" class="fills">Support</text></g></g></g></svg>