<svg xmlns="http://www.w3.org/2000/svg" xmlns:xlink="http://www.w3.org/1999/xlink" viewBox="0 0 612 612"><defs><style>      .cls-1 {        fill: url(#Degradado_sin_nombre_9-2);      }      .cls-2 {        fill: url(#Degradado_sin_nombre_9-6);      }      .cls-3 {        fill: url(#Degradado_sin_nombre_9-4);      }      .cls-4 {        fill: url(#Degradado_sin_nombre_9-3);      }      .cls-5 {        fill: url(#Degradado_sin_nombre_9);      }      .cls-6 {        fill: url(#Degradado_sin_nombre_9-5);      }    </style><linearGradient id="Degradado_sin_nombre_9" data-name="Degradado sin nombre 9" x1="22.2" y1="323.7" x2="589.8" y2="323.7" gradientUnits="userSpaceOnUse"><stop offset="0" stop-color="#D4AF37"></stop><stop offset="1" stop-color="#D4AF37"></stop></linearGradient><linearGradient id="Degradado_sin_nombre_9-2" data-name="Degradado sin nombre 9" y1="424.5" y2="424.5" xlink:href="#Degradado_sin_nombre_9"></linearGradient><linearGradient id="Degradado_sin_nombre_9-3" data-name="Degradado sin nombre 9" y1="527.7" y2="527.7" xlink:href="#Degradado_sin_nombre_9"></linearGradient><linearGradient id="Degradado_sin_nombre_9-4" data-name="Degradado sin nombre 9" x1="329.7" y1="192.5" x2="365.7" y2="192.5" xlink:href="#Degradado_sin_nombre_9"></linearGradient><linearGradient id="Degradado_sin_nombre_9-5" data-name="Degradado sin nombre 9" x1="246" y1="114.2" x2="283.5" y2="114.2" xlink:href="#Degradado_sin_nombre_9"></linearGradient><linearGradient id="Degradado_sin_nombre_9-6" data-name="Degradado sin nombre 9" x1="22.2" y1="153.3" y2="153.3" xlink:href="#Degradado_sin_nombre_9"></linearGradient></defs><g><g id="Capa_1"><g><path class="cls-5" d="M306,342.5c-125,0-231-40.4-283.8-100.8v12.2c1.2,83.6,128.5,151.9,283.8,151.9s283.3-70,283.8-152.8v-11.2c-52.8,60.4-158.8,100.8-283.8,100.8Z"></path><path class="cls-1" d="M306,441.5c-124.7,0-230.9-40.5-283.8-101v16.2c1.2,83.6,128.5,151.9,283.8,151.9s283.3-70,283.8-152.8v-15.2c-52.8,60.5-158.9,101-283.8,101Z"></path><path class="cls-4" d="M306,544.4c-124.7,0-230.9-40.5-283.8-101v16.8c1.2,83.6,128.5,151.9,283.8,151.9s283.3-70,283.8-152.8v-15.8c-52.8,60.5-158.9,101-283.8,101Z"></path><path class="cls-3" d="M365.7,192.9c0-5.3-3-9.4-8.9-12.1-5.9-2.7-15-4.8-27.1-6.2v35.8c24-2,36-7.9,36-17.5Z"></path><path class="cls-6" d="M255.3,126c6.2,2.8,15.6,5,28.2,6.5v-36.6c-14.1,1-23.9,3.1-29.3,6.2-5.4,3.1-8.1,7-8.1,11.7,0,5.3,3.1,9.4,9.3,12.2Z"></path><path class="cls-2" d="M306,306.6c153.8,0,283.8-70.2,283.8-153.3,0-83.1-130-153.3-283.8-153.3S22.2,70.2,22.2,153.3s130,153.3,283.8,153.3ZM189.4,93.4c4.7-6.5,11.3-12.2,20-17,8.7-4.8,19.3-8.6,31.8-11.5,12.5-2.9,26.6-5,42.2-6.1v-19.6h46.2v19.1c14.1.5,28.5,1.6,43.1,3.1,14.6,1.6,28,3.8,40.2,6.6v37.7c-29.8-6.4-57.6-9.9-83.3-10.7v42.3c12.2,1.3,24.2,3,36.2,5,11.9,2.1,22.6,5.1,31.9,9.1,9.4,4,17,9.2,22.9,15.7,5.9,6.5,8.9,14.8,8.9,24.9,0,16.3-8.7,29-26,38.3-17.3,9.3-42,15.1-73.9,17.3v19.6h-46.2v-18.7c-19-.4-36.8-1.5-53.6-3.3-16.7-1.8-30.6-4.4-41.7-7.7v-37.3c7.6,1.8,14.9,3.3,22.1,4.7,7.2,1.3,14.5,2.5,22.1,3.4,7.5,1,15.5,1.7,23.8,2.3,8.3.6,17.4.9,27.3,1v-41.7c-12.2-1.1-24.3-2.7-36.3-4.7-12-2-22.8-4.9-32.4-8.9-9.6-3.9-17.4-9.2-23.4-15.6-6-6.5-9-14.9-9-25.1,0-8.4,2.3-15.8,7-22.4Z"></path></g></g></g></svg>