<svg xmlns="http://www.w3.org/2000/svg" xmlns:xlink="http://www.w3.org/1999/xlink" viewBox="0 0 512 512"><defs><style>      .cls-1 {        fill: url(#Degradado_sin_nombre_2);      }    </style><linearGradient id="Degradado_sin_nombre_2" data-name="Degradado sin nombre 2" x1="0" y1="256" x2="512" y2="256" gradientUnits="userSpaceOnUse"><stop offset="0" stop-color="#b6359c"></stop><stop offset="1" stop-color="#b30050"></stop></linearGradient></defs><g><g id="Capa_1"><path class="cls-1" d="M448,0H64C28.7,0,0,28.7,0,64v384c0,35.3,28.7,64,64,64h192v-176h-64v-80h64v-64c0-53,43-96,96-96h64v80h-32c-17.7,0-32-1.7-32,16v64h80l-32,80h-48v176h96c35.3,0,64-28.7,64-64V64c0-35.3-28.7-64-64-64Z"></path></g></g></svg>