<svg xmlns="http://www.w3.org/2000/svg" xmlns:xlink="http://www.w3.org/1999/xlink" viewBox="0 0 1227 1227"><defs><style>      .cls-1 {        fill: url(#Degradado_sin_nombre_2);      }      .cls-2 {        fill: url(#Degradado_sin_nombre_2-2);      }    </style><linearGradient id="Degradado_sin_nombre_2" data-name="Degradado sin nombre 2" x1="295.7" y1="614.4" x2="930.7" y2="614.4" gradientUnits="userSpaceOnUse"><stop offset="0" stop-color="#D4AF37"></stop><stop offset="1" stop-color="#C5A028"></stop></linearGradient><linearGradient id="Degradado_sin_nombre_2-2" data-name="Degradado sin nombre 2" x1="0" y1="613.5" x2="1227" y2="613.5" xlink:href="#Degradado_sin_nombre_2"></linearGradient></defs><g><g id="Capa_1"><path class="cls-1" d="M654.5,592.5l276.1,395h-113.3l-225.3-322.3h0s-33.1-47.3-33.1-47.3L295.7,241.4h113.3l212.4,303.9,33.1,47.3Z"></path><path class="cls-2" d="M1094.4,0H132.6C59.4,0,0,59.4,0,132.6v961.8C0,1167.6,59.4,1227,132.6,1227h961.8c73.2,0,132.6-59.4,132.6-132.6V132.6C1227,59.4,1167.6,0,1094.4,0h0ZM782.6,1040.5l-228-331.8-285.5,331.8h-73.8l326.5-379.5L195.4,185.9h249l215.9,314.2,270.3-314.2h73.8l-311.3,361.9h0l338.6,492.8h-249Z"></path></g></g></svg>