<svg xmlns="http://www.w3.org/2000/svg" xmlns:xlink="http://www.w3.org/1999/xlink" viewBox="0 0 512 512"><defs><style>      .cls-1 {        fill: url(#Degradado_sin_nombre_2);      }      .cls-2 {        fill: url(#Degradado_sin_nombre_2-3);      }      .cls-3 {        fill: url(#Degradado_sin_nombre_2-2);      }    </style><linearGradient id="Degradado_sin_nombre_2" data-name="Degradado sin nombre 2" x1="91" y1="256" x2="421" y2="256" gradientUnits="userSpaceOnUse"><stop offset="0" stop-color="#b6359c"></stop><stop offset="1" stop-color="#b30050"></stop></linearGradient><linearGradient id="Degradado_sin_nombre_2-2" data-name="Degradado sin nombre 2" x1="181" x2="331" xlink:href="#Degradado_sin_nombre_2"></linearGradient><linearGradient id="Degradado_sin_nombre_2-3" data-name="Degradado sin nombre 2" x1="0" x2="512" xlink:href="#Degradado_sin_nombre_2"></linearGradient></defs><g><g id="Capa_1"><g><path class="cls-1" d="M376,91h-240c-24.8,0-45,20.2-45,45v240c0,24.8,20.2,45,45,45h240c24.8,0,45-20.2,45-45v-240c0-24.8-20.2-45-45-45ZM256,361c-57.9,0-105-47.1-105-105s47.1-105,105-105,105,47.1,105,105-47.1,105-105,105ZM361,181c-16.5,0-30-13.5-30-30s13.5-30,30-30,30,13.5,30,30-13.5,30-30,30Z"></path><path class="cls-3" d="M256,181c-41.4,0-75,33.6-75,75s33.6,75,75,75,75-33.6,75-75-33.6-75-75-75Z"></path><path class="cls-2" d="M436,0H76C34.6,0,0,34.6,0,76v360c0,41.4,34.6,76,76,76h360c41.4,0,76-34.6,76-76V76c0-41.4-34.6-76-76-76ZM451,376c0,41.4-33.6,75-75,75h-240c-41.4,0-75-33.6-75-75v-240c0-41.4,33.6-75,75-75h240c41.4,0,75,33.6,75,75v240Z"></path></g></g></g></svg>