<svg xmlns="http://www.w3.org/2000/svg" xmlns:xlink="http://www.w3.org/1999/xlink" viewBox="0 0 510 510"><defs><style>      .cls-1 {        fill: url(#Degradado_sin_nombre_2);      }    </style><linearGradient id="Degradado_sin_nombre_2" data-name="Degradado sin nombre 2" x1="0" y1="255" x2="510" y2="255" gradientUnits="userSpaceOnUse"><stop offset="0" stop-color="#b6359c"></stop><stop offset="1" stop-color="#b30050"></stop></linearGradient></defs><g><g id="Capa_1"><g id="post-linkedin"><path class="cls-1" d="M459,0H51C23,0,0,23,0,51v408c0,28,23,51,51,51h408c28,0,51-23,51-51V51c0-28-23-51-51-51ZM153,433.5h-76.5v-229.5h76.5v229.5ZM114.8,160.6c-25.5,0-45.9-20.4-45.9-45.9s20.4-45.9,45.9-45.9,45.9,20.4,45.9,45.9-20.4,45.9-45.9,45.9ZM433.5,433.5h-76.5v-135.1c0-20.4-17.9-38.2-38.2-38.2s-38.2,17.9-38.2,38.2v135.1h-76.5v-229.5h76.5v30.6c12.8-20.4,40.8-35.7,63.8-35.7,48.5,0,89.2,40.8,89.2,89.3v145.3Z"></path></g></g></g></svg>