<svg xmlns="http://www.w3.org/2000/svg" xmlns:xlink="http://www.w3.org/1999/xlink" viewBox="0 0 512 512"><defs><style>      .cls-1 {        fill: url(#Degradado_sin_nombre_4-2);      }      .cls-2 {        fill: url(#Degradado_sin_nombre_4);      }      .cls-3 {        fill: url(#Degradado_sin_nombre_4-3);      }    </style><linearGradient id="Degradado_sin_nombre_4" data-name="Degradado sin nombre 4" x1="150.2" y1="135.6" x2="378" y2="135.6" gradientUnits="userSpaceOnUse"><stop offset="0" stop-color="#D4AF37"></stop><stop offset="1" stop-color="#C5A028"></stop></linearGradient><linearGradient id="Degradado_sin_nombre_4-2" data-name="Degradado sin nombre 4" x1="241" y1="236.9" x2="328.7" y2="236.9" xlink:href="#Degradado_sin_nombre_4"></linearGradient><linearGradient id="Degradado_sin_nombre_4-3" data-name="Degradado sin nombre 4" x1="0" y1="256" x2="512" y2="256" xlink:href="#Degradado_sin_nombre_4"></linearGradient></defs><g><g id="Capa_1"><g><path class="cls-2" d="M307.5,180.1l70.5-35.1c-31.1-34.1-75.6-54.1-122-54.1s-77.1,14.5-105.8,38.5c14.4-5.2,29.6-8.5,45.8-8.5,45.2,0,86.5,22.4,111.5,59.1h0Z"></path><path class="cls-1" d="M241,256c0,7.9,6,14.4,14.4,14.8,4.4.2,8.8-1.4,11.8-4.8l61.5-62.9-78.9,39.2c-5.5,2.6-8.9,7.9-8.9,13.7Z"></path><path class="cls-3" d="M256,0C115.4,0,0,115.4,0,256s115.4,256,256,256,256-115.4,256-256S396.6,0,256,0ZM451,256c0,107.5-87.5,195-195,195S61,363.5,61,256,148.5,61,256,61s121,30,157.6,80.3l7.5,10.3-132,134.8c-8,9.1-20.3,14.6-33.2,14.6-24.3,0-45-19.6-45-45s10.1-33.3,25.8-40.7l43.6-21.7c-19.6-26.6-50.6-42.6-84.4-42.6-52.8,0-96.1,39.2-103.5,90h28.5v30h-29.3c3.1,34.2,17.1,65.2,37.9,90.2l20.3-20.3,21.2,21.2-20.3,20.3c25,20.8,56,34.1,90.2,37.2v-28.6h30v28.6c34.2-3.1,65.2-16.4,90.2-37.2l-20.3-20.3,21.2-21.2,20.3,20.3c20.9-25,34.9-55.9,38-90.2h-29.3v-30h60v15Z"></path></g></g></g></svg>