<svg xmlns="http://www.w3.org/2000/svg" xmlns:xlink="http://www.w3.org/1999/xlink" viewBox="0 0 191.7 191.7"><defs><style>      .cls-1 {        fill: url(#Degradado_sin_nombre_2);      }    </style><linearGradient id="Degradado_sin_nombre_2" data-name="Degradado sin nombre 2" x1="0" y1="95.8" x2="191.7" y2="95.8" gradientUnits="userSpaceOnUse"><stop offset="0" stop-color="#D4AF37"></stop><stop offset="1" stop-color="#C5A028"></stop></linearGradient></defs><g><g id="Capa_1"><path class="cls-1" d="M95.8,0C43,0,0,43,0,95.8s43,95.8,95.8,95.8,95.8-43,95.8-95.8S148.7,0,95.8,0ZM150.9,79.6l-60.2,60.2c-2.6,2.6-6,4-9.6,4s-7-1.4-9.6-4l-30.7-30.7c-2.6-2.6-4-6-4-9.6s1.4-7,4-9.6c2.6-2.6,6-4,9.6-4s7,1.4,9.6,4l21.1,21.1,50.6-50.6c2.6-2.6,6-4,9.6-4s7,1.4,9.6,4c5.3,5.3,5.3,13.9,0,19.2Z"></path></g></g></svg>