<svg xmlns="http://www.w3.org/2000/svg" xmlns:xlink="http://www.w3.org/1999/xlink" viewBox="0 0 512 512"><defs><style>      .cls-1 {        fill: url(#Degradado_sin_nombre_6);      }      .cls-2 {        fill: url(#Degradado_sin_nombre_6-2);      }    </style><linearGradient id="Degradado_sin_nombre_6" data-name="Degradado sin nombre 6" x1="1.5" y1="246.1" x2="238.4" y2="246.1" gradientUnits="userSpaceOnUse"><stop offset="0" stop-color="#D4AF37"></stop><stop offset="1" stop-color="#C5A028"></stop></linearGradient><linearGradient id="Degradado_sin_nombre_6-2" data-name="Degradado sin nombre 6" x1="274" y1="246.1" x2="511" y2="246.1" xlink:href="#Degradado_sin_nombre_6"></linearGradient></defs><g><g id="Arrow_Glyph"><g><path class="cls-1" d="M170.6,118.6v177.7l48.8-9.4c16.9,0,25.4,20.4,13.5,32.4l-34,34-65.5,65.5c-3.8,3.7-8.6,5.6-13.4,5.6s-9.7-1.9-13.5-5.6l-65.5-65.5-34-34c-11.9-12-3.4-32.4,13.5-32.4l48.8,9.4V118.6c0-28,22.7-50.7,50.7-50.7s50.7,22.7,50.7,50.7h0Z"></path><path class="cls-2" d="M392.5,424.3c-28,0-50.7-22.7-50.7-50.7v-177.7l-48.8,9.4c-16.9,0-25.4-20.4-13.5-32.4l34-34,65.5-65.5c3.8-3.7,8.6-5.6,13.5-5.6s9.6,1.9,13.4,5.6l65.5,65.5,34,34c11.9,12,3.4,32.4-13.5,32.4l-48.8-9.4v177.7c0,28-22.7,50.7-50.7,50.7h0Z"></path></g></g></g></svg>