<?xml version="1.0" encoding="iso-8859-1"?>
<!-- Uploaded to: SVG Repo, www.svgrepo.com, Generator: SVG Repo Mixer Tools -->
<!DOCTYPE svg PUBLIC "-//W3C//DTD SVG 1.1//EN" "http://www.w3.org/Graphics/SVG/1.1/DTD/svg11.dtd">
<svg fill="#000000" version="1.1" id="Capa_1" xmlns="http://www.w3.org/2000/svg" xmlns:xlink="http://www.w3.org/1999/xlink" 
	 width="800px" height="800px" viewBox="0 0 33.996 33.995"
	 xml:space="preserve">
<g>
	<path d="M7.228,4.525c1.853,1.037,3.683,2.065,5.517,3.089c2.842,1.586,5.678,3.181,8.532,4.741
		c0.663,0.362,0.944,0.813,0.941,1.584c-0.026,6.226-0.018,12.452-0.018,18.676c0,0.487,0.023,0.957-0.523,1.229
		c-0.583,0.289-1.067,0.13-1.573-0.187c-4.212-2.629-8.434-5.242-12.646-7.87c-3.103-1.936-2.512-1.111-2.559-4.548
		C4.826,15.95,4.805,10.661,4.704,5.372c-0.025-1.3,0.468-2.263,1.4-3.075c1.444-1.259,3.102-2.092,5.014-2.284
		c0.553-0.057,1.196,0.074,1.693,0.325C18,2.967,23.165,5.642,28.343,8.288c0.671,0.344,0.941,0.803,0.938,1.579
		c-0.028,6.332-0.046,12.665,0.011,18.997c0.011,1.243-0.98,1.897-2.166,1.447c-0.574-0.22-0.761-0.646-0.758-1.257
		c0.019-4.009,0.01-8.017,0.009-12.023c0-1.978-0.015-3.955,0.01-5.932c0.007-0.526-0.178-0.772-0.657-1.025
		c-3.8-2-7.575-4.049-11.359-6.081c-0.775-0.416-1.561-0.816-2.331-1.242c-0.784-0.433-1.584-0.469-2.378-0.084
		C8.755,3.106,7.814,3.519,7.228,4.525z"/>
</g>
</svg>