<svg xmlns="http://www.w3.org/2000/svg" xmlns:xlink="http://www.w3.org/1999/xlink" viewBox="0 0 486 486"><defs><style>      .cls-1 {        fill: url(#Degradado_sin_nombre_8);      }    </style><linearGradient id="Degradado_sin_nombre_8" data-name="Degradado sin nombre 8" x1="9.8" y1="243" x2="476.2" y2="243" gradientUnits="userSpaceOnUse"><stop offset="0" stop-color="#D4AF37"></stop><stop offset="1" stop-color="#C5A028"></stop></linearGradient></defs><g><g id="Capa_1"><path class="cls-1" d="M298.4,424.7v14.2c0,11.3-8.3,20.7-19.1,22.3l-3.5,12.9c-1.9,7-8.2,11.9-15.5,11.9h-34.7c-7.3,0-13.6-4.9-15.5-11.9l-3.4-12.9c-10.9-1.7-19.2-11-19.2-22.4v-14.2c0-7.6,6.1-13.7,13.7-13.7h83.5c7.6.1,13.7,6.2,13.7,13.8ZM362.7,233.3c0,32.3-12.8,61.6-33.6,83.1-15.8,16.4-26,37.3-29.4,59.6-1.5,9.6-9.8,16.7-19.6,16.7h-74.3c-9.7,0-18.1-7-19.5-16.6-3.5-22.3-13.8-43.5-29.6-59.8-20.4-21.2-33.1-50-33.4-81.7-.7-66.6,52.3-120.5,118.9-121,66.5-.5,120.5,53.3,120.5,119.7ZM256.5,160.8c0-7.4-6-13.5-13.5-13.5-47.6,0-86.4,38.7-86.4,86.4s6,13.5,13.5,13.5,13.5-6,13.5-13.5c0-32.8,26.7-59.4,59.4-59.4,7.5,0,13.5-6,13.5-13.5ZM243,74.3c7.4,0,13.5-6,13.5-13.5V13.5c0-7.4-6-13.5-13.5-13.5s-13.5,6-13.5,13.5v47.3c0,7.5,6.1,13.5,13.5,13.5ZM84.1,233.2c0-7.4-6-13.5-13.5-13.5H23.3c-7.4,0-13.5,6-13.5,13.5s6,13.5,13.5,13.5h47.3c7.5,0,13.5-6,13.5-13.5ZM462.7,219.7h-47.3c-7.4,0-13.5,6-13.5,13.5s6,13.5,13.5,13.5h47.3c7.4,0,13.5-6,13.5-13.5s-6-13.5-13.5-13.5ZM111.6,345.6l-33.5,33.5c-5.3,5.3-5.3,13.8,0,19.1,2.6,2.6,6.1,3.9,9.5,3.9s6.9-1.3,9.5-3.9l33.5-33.5c5.3-5.3,5.3-13.8,0-19.1-5.2-5.3-13.8-5.3-19,0ZM364.9,124.8c3.4,0,6.9-1.3,9.5-3.9l33.5-33.5c5.3-5.3,5.3-13.8,0-19.1-5.3-5.3-13.8-5.3-19.1,0l-33.5,33.5c-5.3,5.3-5.3,13.8,0,19.1,2.7,2.6,6.1,3.9,9.6,3.9ZM111.6,120.8c2.6,2.6,6.1,3.9,9.5,3.9s6.9-1.3,9.5-3.9c5.3-5.3,5.3-13.8,0-19.1l-33.5-33.5c-5.3-5.3-13.8-5.3-19.1,0-5.3,5.3-5.3,13.8,0,19.1l33.6,33.5ZM374.4,345.6c-5.3-5.3-13.8-5.3-19.1,0-5.3,5.3-5.3,13.8,0,19.1l33.5,33.5c2.6,2.6,6.1,3.9,9.5,3.9s6.9-1.3,9.5-3.9c5.3-5.3,5.3-13.8,0-19.1l-33.4-33.5Z"></path></g></g></svg>