<svg xmlns="http://www.w3.org/2000/svg" xmlns:xlink="http://www.w3.org/1999/xlink" viewBox="0 0 512 512"><defs><style>      .cls-1 {        fill: url(#Degradado_sin_nombre_9);      }    </style><linearGradient id="Degradado_sin_nombre_9" data-name="Degradado sin nombre 9" x1="0" y1="256" x2="512" y2="256" gradientUnits="userSpaceOnUse"><stop offset="0" stop-color="#D4AF37"></stop><stop offset="1" stop-color="#C5A028"></stop></linearGradient></defs><g><g id="Layer_1"><path class="cls-1" d="M0,77c0-19,15.6-34.6,34.6-34.6h20.9c-4.1,10.8-6.3,22.4-6.3,34.6s2.2,23.9,6.3,34.6h-20.9C15.6,111.6,0,96.1,0,77ZM147.1,154c42.5,0,77-34.5,77-77C224.1,34.5,189.6,0,147.1,0s-77,34.5-77,77,34.5,77,77,77h0ZM477.4,111.6c19,0,34.6-15.6,34.6-34.6s-15.6-34.6-34.6-34.6h-238.8c4.1,10.8,6.3,22.4,6.3,34.6s-2.2,23.9-6.3,34.6h238.8ZM287.9,256c0,42.5,34.5,77,77,77s77-34.5,77-77-34.5-77-77-77-77,34.5-77,77ZM34.6,290.6h238.8c-4.1-10.8-6.3-22.4-6.3-34.6s2.2-23.9,6.3-34.6H34.6C15.6,221.4,0,237,0,256s15.6,34.6,34.6,34.6ZM477.4,400.4h-238.8c4.1,10.8,6.3,22.4,6.3,34.6s-2.2,23.9-6.3,34.6h238.8c19,0,34.6-15.6,34.6-34.6s-15.6-34.6-34.6-34.6ZM477.4,221.4h-20.9c4.1,10.8,6.3,22.4,6.3,34.6s-2.2,23.9-6.3,34.6h20.9c19,0,34.6-15.6,34.6-34.6s-15.6-34.6-34.6-34.6ZM147.1,358c-42.5,0-77,34.5-77,77s34.5,77,77,77,77-34.5,77-77c0-42.5-34.5-77-77-77ZM34.6,400.4C15.6,400.4,0,415.9,0,435s15.6,34.6,34.6,34.6h20.9c-4.1-10.8-6.3-22.4-6.3-34.6s2.2-23.9,6.3-34.6h-20.9Z"></path></g></g></svg>