<svg xmlns="http://www.w3.org/2000/svg" xmlns:xlink="http://www.w3.org/1999/xlink" viewBox="0 0 512 512"><defs><style>      .cls-1 {        fill: url(#Degradado_sin_nombre_6);      }      .cls-2 {        fill: url(#Degradado_sin_nombre_6-4);      }      .cls-3 {        fill: url(#Degradado_sin_nombre_6-8);      }      .cls-4 {        fill: url(#Degradado_sin_nombre_6-3);      }      .cls-5 {        fill: url(#Degradado_sin_nombre_6-9);      }      .cls-6 {        fill: url(#Degradado_sin_nombre_6-5);      }      .cls-7 {        fill: url(#Degradado_sin_nombre_6-6);      }      .cls-8 {        fill: url(#Degradado_sin_nombre_6-7);      }      .cls-9 {        fill: url(#Degradado_sin_nombre_6-2);      }    </style><linearGradient id="Degradado_sin_nombre_6" data-name="Degradado sin nombre 6" x1="42.7" y1="384" x2="179.5" y2="384" gradientUnits="userSpaceOnUse"><stop offset="0" stop-color="#D4AF37"></stop><stop offset="1" stop-color="#C5A028"></stop></linearGradient><linearGradient id="Degradado_sin_nombre_6-2" data-name="Degradado sin nombre 6" x1="336" y1="272" x2="432" y2="272" xlink:href="#Degradado_sin_nombre_6"></linearGradient><linearGradient id="Degradado_sin_nombre_6-3" data-name="Degradado sin nombre 6" x1="80" y1="272" x2="176" y2="272" xlink:href="#Degradado_sin_nombre_6"></linearGradient><linearGradient id="Degradado_sin_nombre_6-4" data-name="Degradado sin nombre 6" x1="332.5" x2="469.3" xlink:href="#Degradado_sin_nombre_6"></linearGradient><linearGradient id="Degradado_sin_nombre_6-5" data-name="Degradado sin nombre 6" x1="197.3" y1="272" x2="314.7" y2="272" xlink:href="#Degradado_sin_nombre_6"></linearGradient><linearGradient id="Degradado_sin_nombre_6-6" data-name="Degradado sin nombre 6" x1="160" y1="405.3" x2="352" y2="405.3" xlink:href="#Degradado_sin_nombre_6"></linearGradient><linearGradient id="Degradado_sin_nombre_6-7" data-name="Degradado sin nombre 6" x1="352" y1="131.4" x2="469.3" y2="131.4" xlink:href="#Degradado_sin_nombre_6"></linearGradient><linearGradient id="Degradado_sin_nombre_6-8" data-name="Degradado sin nombre 6" x1="42.7" y1="131.4" x2="160" y2="131.4" xlink:href="#Degradado_sin_nombre_6"></linearGradient><linearGradient id="Degradado_sin_nombre_6-9" data-name="Degradado sin nombre 6" x1="186.4" y1="98.8" x2="325.6" y2="98.8" xlink:href="#Degradado_sin_nombre_6"></linearGradient></defs><g><g id="Layer_1"><g><path class="cls-1" d="M179.5,332.2c-11.7-7.7-25.7-12.2-40.9-12.2h-21.3c-41.3,0-74.7,33.4-74.7,74.7v21.3c0,17.7,14.3,32,32,32h64v-32c0-34,16-64.3,40.9-83.8Z"></path><circle class="cls-9" cx="384" cy="272" r="48"></circle><circle class="cls-4" cx="128" cy="272" r="48"></circle><path class="cls-2" d="M394.7,320h-21.3c-15.1,0-29.1,4.5-40.9,12.2,24.9,19.5,40.9,49.8,40.9,83.8v32h64c17.7,0,32-14.3,32-32v-21.3c0-41.3-33.4-74.7-74.7-74.7Z"></path><circle class="cls-6" cx="256" cy="272" r="58.7"></circle><path class="cls-7" d="M266.7,330.7h-21.3c-47.1,0-85.3,38.3-85.3,85.3v32c0,17.6,14.4,32,32,32h128c17.6,0,32-14.4,32-32v-32c0-47.1-38.3-85.3-85.3-85.3Z"></path><path class="cls-8" d="M371,149.1l-.7,27.3c-.2,7.8,7.4,13.3,14.7,10.7l25.7-9.2,25.7,9.2c7.3,2.6,14.9-3,14.7-10.7l-.7-27.3,16.7-21.7c4.7-6.1,1.8-15.1-5.6-17.3l-26.2-7.7-15.4-22.5c-4.4-6.4-13.8-6.4-18.2,0l-15.4,22.5-26.2,7.7c-7.4,2.2-10.3,11.2-5.6,17.3l16.7,21.7Z"></path><path class="cls-3" d="M61.6,149.1l-.7,27.3c-.2,7.8,7.4,13.3,14.7,10.7l25.7-9.2,25.7,9.2c7.3,2.6,14.9-3,14.7-10.7l-.7-27.3,16.7-21.7c4.7-6.1,1.8-15.1-5.6-17.3l-26.2-7.7-15.4-22.5c-4.4-6.4-13.8-6.4-18.2,0l-15.4,22.5-26.2,7.7c-7.4,2.2-10.3,11.2-5.6,17.3l16.7,21.7Z"></path><path class="cls-5" d="M208.9,119.8l-.9,32.4c-.3,9.2,8.8,15.8,17.5,12.7l30.5-10.8h0l30.5,10.8c8.7,3.1,17.7-3.5,17.5-12.7l-.9-32.4,19.8-25.7c5.6-7.3,2.1-17.9-6.7-20.5l-31.1-9.2-18.3-26.7c-5.2-7.6-16.4-7.6-21.6,0l-18.3,26.7-31.1,9.2c-8.8,2.6-12.3,13.2-6.7,20.5l19.8,25.7Z"></path></g></g></g></svg>