<svg xmlns="http://www.w3.org/2000/svg" xmlns:xlink="http://www.w3.org/1999/xlink" viewBox="0 0 301.4 301.4"><defs><style>      .cls-1 {        fill: url(#Degradado_sin_nombre_2);      }    </style><linearGradient id="Degradado_sin_nombre_2" data-name="Degradado sin nombre 2" x1="0" y1="150.7" x2="301.4" y2="150.7" gradientUnits="userSpaceOnUse"><stop offset="0" stop-color="#D4AF37"></stop><stop offset="1" stop-color="#C5A028"></stop></linearGradient></defs><g><g id="Capa_1"><path class="cls-1" d="M150.7,0C67.6,0,0,67.6,0,150.7s67.6,150.7,150.7,150.7,150.7-67.6,150.7-150.7S233.8,0,150.7,0ZM53.9,251.9c-26.7-25.5-43.3-61.4-43.3-101.2s0-1.7,0-2.5l39,13.4,27.3,70.4-23.1,19.8ZM85.9,45.1l70.9-25.5,50.7,47.3-41.7,59.7-77.5-14.7-2.4-66.8ZM244.3,254.9c-2.9,2.6-6,5.2-9.1,7.5l-58.3,24.9-38.2-39.8,49.5-55.7,66.2,8.1-10.2,54.9ZM263,66.9c17.5,23.4,27.9,52.4,27.9,83.8s0,1.7,0,2.5l-7.9-2-23.8-67.2,3.9-17.1Z"></path></g></g></svg>