<svg width="187" xmlns="http://www.w3.org/2000/svg" height="40" id="screenshot-1cd32a24-47e5-8044-8005-0ccd705f4298" fill="none" version="1.1"><style>@font-face{font-family:&apos;Montserrat&apos;;font-style:normal;font-weight:400;font-display:block;src:url(https://design.penpot.app/internal/gfonts/font/montserrat/v26/JTUHjIg1_i6t8kCHKm4532VJOt5-QNFgpCtr6Hw0aXpsog.woff2) format(&apos;woff2&apos;);unicode-range:U+0460-052F, U+1C80-1C88, U+20B4, U+2DE0-2DFF, U+A640-A69F, U+FE2E-FE2F}@font-face{font-family:&apos;Montserrat&apos;;font-style:normal;font-weight:400;font-display:block;src:url(https://design.penpot.app/internal/gfonts/font/montserrat/v26/JTUHjIg1_i6t8kCHKm4532VJOt5-QNFgpCtr6Hw9aXpsog.woff2) format(&apos;woff2&apos;);unicode-range:U+0301, U+0400-045F, U+0490-0491, U+04B0-04B1, U+2116}@font-face{font-family:&apos;Montserrat&apos;;font-style:normal;font-weight:400;font-display:block;src:url(https://design.penpot.app/internal/gfonts/font/montserrat/v26/JTUHjIg1_i6t8kCHKm4532VJOt5-QNFgpCtr6Hw2aXpsog.woff2) format(&apos;woff2&apos;);unicode-range:U+0102-0103, U+0110-0111, U+0128-0129, U+0168-0169, U+01A0-01A1, U+01AF-01B0, U+0300-0301, U+0303-0304, U+0308-0309, U+0323, U+0329, U+1EA0-1EF9, U+20AB}@font-face{font-family:&apos;Montserrat&apos;;font-style:normal;font-weight:400;font-display:block;src:url(https://design.penpot.app/internal/gfonts/font/montserrat/v26/JTUHjIg1_i6t8kCHKm4532VJOt5-QNFgpCtr6Hw3aXpsog.woff2) format(&apos;woff2&apos;);unicode-range:U+0100-02AF, U+0304, U+0308, U+0329, U+1E00-1E9F, U+1EF2-1EFF, U+2020, U+20A0-20AB, U+20AD-20C0, U+2113, U+2C60-2C7F, U+A720-A7FF}@font-face{font-family:&apos;Montserrat&apos;;font-style:normal;font-weight:400;font-display:block;src:url(https://design.penpot.app/internal/gfonts/font/montserrat/v26/JTUHjIg1_i6t8kCHKm4532VJOt5-QNFgpCtr6Hw5aXo.woff2) format(&apos;woff2&apos;);unicode-range:U+0000-00FF, U+0131, U+0152-0153, U+02BB-02BC, U+02C6, U+02DA, U+02DC, U+0304, U+0308, U+0329, U+2000-206F, U+2074, U+20AC, U+2122, U+2191, U+2193, U+2212, U+2215, U+FEFF, U+FFFD}</style><g id="shape-1cd32a24-47e5-8044-8005-0ccd705f4298" data-testid="Custom-Website-Development"><g class="fills" id="fills-1cd32a24-47e5-8044-8005-0ccd705f4298"><rect rx="0" ry="0" width="187" height="40" class="frame-background"/></g><g class="frame-children"><g id="shape-1cd32a24-47e5-8044-8005-0ccba990839b" data-testid="003-configuraciones" xml:space="preserve" style="fill: rgb(0, 0, 0);"><g id="shape-1cd32a24-47e5-8044-8005-0ccba99645e0" data-testid="svg-path"><path d="M35.6 16.6c-.4-1.8-1.2-3.6-2.2-5.2l2-4.2-2.8-2.8-4.2 2c-1.6-1-3.2-1.6-5-2L22 0h-4l-1.6 4.4c-1.8.4-3.4 1.2-5 2.2l-4.2-2-2.8 2.6 2 4.2c-1 1.6-1.6 3.2-2 5L0 18v4l4.4 1.6c.4 1.8 1.2 3.6 2 5l-2 4.2 2.8 2.8 4.2-2c1.6 1 3.2 1.8 5 2.2L18 40h4l1.6-4.4c.6-.2 1.4-.4 2-.6l-3.2-3.2C14.8 33.2 8 27.6 8 20c0-6.6 5.4-12 12-12 7.4 0 13 6.6 11.8 13.6l3.4 3.4c.2-.6.4-1 .4-1.6L40 22v-4l-4.4-1.4Z" style="fill: rgb(0, 0, 0); fill-opacity: 1;" class="fills" id="fills-1cd32a24-47e5-8044-8005-0ccba99645e0"/></g><g id="shape-1cd32a24-47e5-8044-8005-0ccba997b088" data-testid="svg-path"><path d="M39.2 34.8 27.4 23c2.8-6.2-3-12.8-9.4-11l3.6 3.6c1.6 1.6 1.6 4.2 0 5.6-1.4 1.6-4.2 1.6-5.6 0l-3.6-3.4c-1.8 5.6 4 12 10.6 9.4L34.8 39c1.2 1.2 3 1.2 4.2 0 1.2-1 1.2-3 .2-4.2Z" style="fill: rgb(0, 0, 0); fill-opacity: 1;" class="fills" id="fills-1cd32a24-47e5-8044-8005-0ccba997b088"/></g></g><g class="text-container" id="shape-1cd32a24-47e5-8044-8005-0ccb4bcb02d9" data-testid="Custom Website Development"><defs><pattern patternUnits="userSpaceOnUse" x="48" y="0" width="119.633" height="34.8" id="fill-0-render-16-0"><rect width="119.633" height="34.8" style="fill: rgb(255, 255, 255); fill-opacity: 1;"/></pattern><pattern patternUnits="userSpaceOnUse" x="48" y="0" width="119.633" height="34.8" id="fill-1-render-16-0"><rect width="119.633" height="34.8" style="fill: rgb(255, 255, 255); fill-opacity: 1;"/></pattern></defs><text x="48" y="17.4" dominant-baseline="ideographic" textLength="119.633" lengthAdjust="spacingAndGlyphs" style="text-transform: none; font-family: Montserrat; letter-spacing: normal; font-style: normal; font-weight: 400; white-space: pre; font-size: 14px; text-decoration: rgb(255, 255, 255); direction: ltr; fill: rgb(255, 255, 255); fill-opacity: 1;" class="fills" id="fills-1cd32a24-47e5-8044-8005-0ccb4bcb02d9">Custom Website </text><defs><pattern patternUnits="userSpaceOnUse" x="48" y="0" width="119.633" height="34.8" id="fill-0-render-16-1"><rect width="119.633" height="34.8" style="fill: rgb(255, 255, 255); fill-opacity: 1;"/></pattern><pattern patternUnits="userSpaceOnUse" x="48" y="0" width="119.633" height="34.8" id="fill-1-render-16-1"><rect width="119.633" height="34.8" style="fill: rgb(255, 255, 255); fill-opacity: 1;"/></pattern></defs><text x="48" y="34.2" dominant-baseline="ideographic" textLength="96.217" lengthAdjust="spacingAndGlyphs" style="text-transform: none; font-family: Montserrat; letter-spacing: normal; font-style: normal; font-weight: 400; white-space: pre; font-size: 14px; text-decoration: rgb(255, 255, 255); direction: ltr; fill: rgb(255, 255, 255); fill-opacity: 1;" class="fills">Development</text></g></g></g></svg>