<svg xmlns="http://www.w3.org/2000/svg" xmlns:xlink="http://www.w3.org/1999/xlink" viewBox="0 0 512 512"><defs><style>      .cls-1 {        fill: url(#Degradado_sin_nombre_4-2);      }      .cls-2 {        fill: url(#Degradado_sin_nombre_4);      }      .cls-3 {        fill: url(#Degradado_sin_nombre_4-3);      }    </style><linearGradient id="Degradado_sin_nombre_4" data-name="Degradado sin nombre 4" x1="0" y1="363.8" x2="141.2" y2="363.8" gradientUnits="userSpaceOnUse"><stop offset="0" stop-color="#b6359c"></stop><stop offset="1" stop-color="#b30050"></stop></linearGradient><linearGradient id="Degradado_sin_nombre_4-2" data-name="Degradado sin nombre 4" x1="185.4" y1="256" x2="326.6" y2="256" xlink:href="#Degradado_sin_nombre_4"></linearGradient><linearGradient id="Degradado_sin_nombre_4-3" data-name="Degradado sin nombre 4" x1="370.8" y1="309.9" x2="512" y2="309.9" xlink:href="#Degradado_sin_nombre_4"></linearGradient></defs><g><g id="Layer_1"><g><path class="cls-2" d="M124.5,239.3H16.7c-9.2,0-16.7,7.5-16.7,16.7v215.6c0,9.2,7.5,16.7,16.7,16.7h107.8c9.2,0,16.7-7.5,16.7-16.7v-215.6c0-9.2-7.5-16.7-16.7-16.7Z"></path><path class="cls-1" d="M309.9,23.7h-107.8c-9.2,0-16.7,7.5-16.7,16.7v431.3c0,9.2,7.5,16.7,16.7,16.7h107.8c9.2,0,16.7-7.5,16.7-16.7V40.4c0-9.2-7.5-16.7-16.7-16.7Z"></path><path class="cls-3" d="M495.3,131.5h-107.8c-9.2,0-16.7,7.5-16.7,16.7v323.5c0,9.2,7.5,16.7,16.7,16.7h107.8c9.2,0,16.7-7.5,16.7-16.7V148.2c0-9.2-7.5-16.7-16.7-16.7Z"></path></g></g></g></svg>