<svg xmlns="http://www.w3.org/2000/svg" xmlns:xlink="http://www.w3.org/1999/xlink" viewBox="0 0 32 31"><defs><style>      .cls-1 {        fill: url(#Degradado_sin_nombre_8);        fill-rule: evenodd;      }    </style><linearGradient id="Degradado_sin_nombre_8" data-name="Degradado sin nombre 8" x1="1.5" y1="16" x2="31" y2="16" gradientUnits="userSpaceOnUse"><stop offset="0" stop-color="#b6359c"></stop><stop offset="1" stop-color="#b30050"></stop></linearGradient></defs><g><g id="Capa_1"><path class="cls-1" d="M23.1,8h-4.1c-1.1,0-2-.9-2-2s.9-2,2-2h4.1c-.8-1.8-2.5-3-4.6-3s-5,2.2-5,5,.8,3.1,2,4c0,0,0,11,0,11,0,2.2-1.8,4-4,4s-2.1-.4-2.8-1.2c-.5-.5-.9-1.1-1-1.8h1.9c.4,0,.8-.2.9-.6.2-.4,0-.8-.2-1.1l-7-7c-.3-.3-.7-.4-1.1-.2-.4.2-.6.5-.6.9v7c0,2.7,1.1,5.2,2.9,7.1,1.9,1.9,4.4,2.9,7.1,2.9h0c5.4-.1,10-4.6,10-10v-11c.7-.5,1.2-1.2,1.6-2ZM19,7h8c.5,0,1,.2,1.4.6s.6.9.6,1.4v1c0,.5-.2,1-.6,1.4s-.9.6-1.4.6c-2.2,0-4,1.8-4,4v2c0,2.2,1.8,4,4,4h3c.6,0,1-.4,1-1s-.4-1-1-1h-3c-1.1,0-2-.9-2-2v-2c0-1.1.9-2,2-2s2.1-.4,2.8-1.2c.8-.8,1.2-1.8,1.2-2.8v-1c0-1.1-.4-2.1-1.2-2.8-.8-.8-1.8-1.2-2.8-1.2h-8c-.6,0-1,.4-1,1s.4,1,1,1Z"></path></g></g></svg>