<svg xmlns="http://www.w3.org/2000/svg" xmlns:xlink="http://www.w3.org/1999/xlink" viewBox="0 0 32 32"><defs><style>      .cls-1 {        fill: url(#Degradado_sin_nombre_2);      }    </style><linearGradient id="Degradado_sin_nombre_2" data-name="Degradado sin nombre 2" x1="2" y1="16" x2="30" y2="16" gradientUnits="userSpaceOnUse"><stop offset="0" stop-color="#D4AF37"></stop><stop offset="1" stop-color="#C5A028"></stop></linearGradient></defs><g><g id="layer_1"><path class="cls-1" d="M28,7.6c0,0-.1,0-.2,0-.4-.1-.8-.2-1.2-.2-1.9,0-3.4,1.5-3.4,3.4s.2,1.5.7,2l-2.3,3.1-3.1-6c.7-.6,1.1-1.5,1.1-2.5,0-1.9-1.5-3.4-3.4-3.4s-3.4,1.5-3.4,3.4.4,1.9,1.1,2.5l-3.1,6-2.3-3.1c.4-.6.7-1.3.7-2,0-1.9-1.5-3.4-3.4-3.4s-.8,0-1.2.2c0,0-.2,0-.2,0-1.2.5-2,1.7-2,3.1s1.2,3.1,2.8,3.4l1.4,11.4.5.2c3.1,1.5,6.2,2.3,9.3,2.3s6.2-.8,9.3-2.3l.5-.2,1.4-11.4c1.6-.3,2.8-1.7,2.8-3.4s-.8-2.6-2-3.1Z"></path></g></g></svg>