<svg xmlns="http://www.w3.org/2000/svg" xmlns:xlink="http://www.w3.org/1999/xlink" viewBox="0 0 512 512"><defs><style>      .cls-1 {        fill: url(#Degradado_sin_nombre_2);        fill-rule: evenodd;      }    </style><linearGradient id="Degradado_sin_nombre_2" data-name="Degradado sin nombre 2" x1="0" y1="256" x2="512" y2="256" gradientUnits="userSpaceOnUse"><stop offset="0" stop-color="#D4AF37"></stop><stop offset="1" stop-color="#C5A028"></stop></linearGradient></defs><g><g id="Layer_1"><path class="cls-1" d="M256,0c141.4,0,256,114.6,256,256s-114.6,256-256,256S0,397.4,0,256,114.6,0,256,0ZM245.5,160.1l-69.7,43.4-71.3,44.4c-4.5,2.8-5.9,8.7-3.1,13.2.8,1.2,1.8,2.3,3.1,3.1l71.3,44.4,69.7,43.4c4.5,2.8,10.4,1.4,13.2-3,1-1.5,1.5-3.3,1.5-5.1v-52.7h144.3c4.2,0,7.5-3.4,7.5-7.5v-54.9c0-4.2-3.4-7.5-7.5-7.5h-144.3v-52.7c0-5.3-4.3-9.6-9.5-9.6-1.8,0-3.6.5-5.1,1.5h0Z"></path></g></g></svg>