<svg xmlns="http://www.w3.org/2000/svg" xmlns:xlink="http://www.w3.org/1999/xlink" viewBox="0 0 512 512"><defs><style>      .cls-1 {        fill: url(#Degradado_sin_nombre_4-4);      }      .cls-2 {        fill: url(#Degradado_sin_nombre_4-2);      }      .cls-3 {        fill: url(#Degradado_sin_nombre_4);      }      .cls-4 {        fill: url(#Degradado_sin_nombre_4-3);      }    </style><linearGradient id="Degradado_sin_nombre_4" data-name="Degradado sin nombre 4" x1="15.1" y1="384" x2="240.9" y2="384" gradientUnits="userSpaceOnUse"><stop offset="0" stop-color="#D4AF37"></stop><stop offset="1" stop-color="#C5A028"></stop></linearGradient><linearGradient id="Degradado_sin_nombre_4-2" data-name="Degradado sin nombre 4" x1="271.1" y1="128" x2="496.9" y2="128" xlink:href="#Degradado_sin_nombre_4"></linearGradient><linearGradient id="Degradado_sin_nombre_4-3" data-name="Degradado sin nombre 4" x1="271.1" x2="496.9" xlink:href="#Degradado_sin_nombre_4"></linearGradient><linearGradient id="Degradado_sin_nombre_4-4" data-name="Degradado sin nombre 4" y1="128" y2="128" xlink:href="#Degradado_sin_nombre_4"></linearGradient></defs><g><g id="Layer_1"><g><path class="cls-3" d="M240.9,323.8v120.5c0,29.1-23.6,52.7-52.7,52.7h-120.5c-29.1,0-52.7-23.6-52.7-52.7v-120.5c0-29.1,23.6-52.7,52.7-52.7h120.5c29.1,0,52.7,23.6,52.7,52.7Z"></path><path class="cls-2" d="M496.9,67.8v120.5c0,29.1-23.6,52.7-52.7,52.7h-120.5c-29.1,0-52.7-23.6-52.7-52.7v-120.5c0-29.1,23.6-52.7,52.7-52.7h120.5c29.1,0,52.7,23.6,52.7,52.7Z"></path><path class="cls-4" d="M496.9,323.8v120.5c0,29.1-23.6,52.7-52.7,52.7h-120.5c-29.1,0-52.7-23.6-52.7-52.7v-120.5c0-29.1,23.6-52.7,52.7-52.7h120.5c29.1,0,52.7,23.6,52.7,52.7Z"></path><path class="cls-1" d="M240.9,67.8v120.5c0,29.1-23.6,52.7-52.7,52.7h-120.5c-29.1,0-52.7-23.6-52.7-52.7v-120.5c0-29.1,23.6-52.7,52.7-52.7h120.5c29.1,0,52.7,23.6,52.7,52.7Z"></path></g></g></g></svg>