<svg xmlns="http://www.w3.org/2000/svg" xmlns:xlink="http://www.w3.org/1999/xlink" viewBox="0 0 512 512"><defs><style>      .cls-1 {        fill: url(#Degradado_sin_nombre_8-2);      }      .cls-2 {        fill: url(#Degradado_sin_nombre_8);      }    </style><linearGradient id="Degradado_sin_nombre_8" data-name="Degradado sin nombre 8" x1="73.1" y1="352.8" x2="507.8" y2="352.8" gradientUnits="userSpaceOnUse"><stop offset="0" stop-color="#D4AF37"></stop><stop offset="1" stop-color="#C5A028"></stop></linearGradient><linearGradient id="Degradado_sin_nombre_8-2" data-name="Degradado sin nombre 8" x1="13.2" y1="91.7" x2="261.8" y2="91.7" xlink:href="#Degradado_sin_nombre_8"></linearGradient></defs><g><g id="Glyph"><path class="cls-2" d="M490.8,316c-9.4-68-65.9-118.5-132.4-118.5h-135.8c-66.6,0-123,50.5-132.4,118.5-1.1,7.7-17,120.2-17,128,0,35.3,27.8,64,62,64s44.9-13.7,55.5-35.4l37.8-73.3h124.2l37.8,73.3c10.5,21.7,32,35.4,55.5,35.4,34.2,0,62-28.6,62-64s-16-120.3-17-128h0ZM383.6,244.1c11.4,0,20.7,9.3,20.7,20.7s-9.3,20.7-20.7,20.7-20.7-9.3-20.7-20.7,9.3-20.7,20.7-20.7ZM243.9,321.7h-31v31h-31v-31h-31v-31h31v-31h31v31h31v31ZM342.2,326.9c-11.4,0-20.7-9.3-20.7-20.7s9.3-20.7,20.7-20.7,20.7,9.3,20.7,20.7c0,11.4-9.3,20.7-20.7,20.7ZM383.6,368.3c-11.4,0-20.7-9.3-20.7-20.7s9.3-20.7,20.7-20.7,20.7,9.3,20.7,20.7-9.3,20.7-20.7,20.7ZM425,326.9c-11.4,0-20.7-9.3-20.7-20.7s9.3-20.7,20.7-20.7,20.7,9.3,20.7,20.7-9.3,20.7-20.7,20.7Z"></path><path class="cls-1" d="M252.1,70.6C246.7,31.8,214.4,2.9,176.4,2.9h-77.7C60.6,2.9,28.4,31.8,23,70.6c-.6,4.4-9.7,68.8-9.7,73.2,0,20.2,15.9,36.6,35.5,36.6s25.7-7.8,31.7-20.2l21.6-41.9h71l21.6,41.9c6,12.4,18.3,20.2,31.7,20.2,19.6,0,35.5-16.4,35.5-36.6s-9.1-68.8-9.7-73.2h0ZM190.8,29.5c6.5,0,11.8,5.3,11.8,11.8s-5.3,11.8-11.8,11.8-11.8-5.3-11.8-11.8,5.3-11.8,11.8-11.8ZM110.9,73.9h-17.8v17.8h-17.8v-17.8h-17.8v-17.8h17.8v-17.8h17.8v17.8h17.8v17.8ZM167.1,76.9c-6.5,0-11.8-5.3-11.8-11.8s5.3-11.8,11.8-11.8,11.8,5.3,11.8,11.8c0,6.5-5.3,11.8-11.8,11.8ZM190.8,100.6c-6.5,0-11.8-5.3-11.8-11.8s5.3-11.8,11.8-11.8,11.8,5.3,11.8,11.8-5.3,11.8-11.8,11.8ZM214.5,76.9c-6.5,0-11.8-5.3-11.8-11.8s5.3-11.8,11.8-11.8,11.8,5.3,11.8,11.8-5.3,11.8-11.8,11.8Z"></path></g></g></svg>