<svg width="187" xmlns="http://www.w3.org/2000/svg" height="40" id="screenshot-1cd32a24-47e5-8044-8005-0ccd849d4ffa" fill="none" version="1.1"><style>@font-face{font-family:&apos;Montserrat&apos;;font-style:normal;font-weight:400;font-display:block;src:url(https://design.penpot.app/internal/gfonts/font/montserrat/v26/JTUHjIg1_i6t8kCHKm4532VJOt5-QNFgpCtr6Hw0aXpsog.woff2) format(&apos;woff2&apos;);unicode-range:U+0460-052F, U+1C80-1C88, U+20B4, U+2DE0-2DFF, U+A640-A69F, U+FE2E-FE2F}@font-face{font-family:&apos;Montserrat&apos;;font-style:normal;font-weight:400;font-display:block;src:url(https://design.penpot.app/internal/gfonts/font/montserrat/v26/JTUHjIg1_i6t8kCHKm4532VJOt5-QNFgpCtr6Hw9aXpsog.woff2) format(&apos;woff2&apos;);unicode-range:U+0301, U+0400-045F, U+0490-0491, U+04B0-04B1, U+2116}@font-face{font-family:&apos;Montserrat&apos;;font-style:normal;font-weight:400;font-display:block;src:url(https://design.penpot.app/internal/gfonts/font/montserrat/v26/JTUHjIg1_i6t8kCHKm4532VJOt5-QNFgpCtr6Hw2aXpsog.woff2) format(&apos;woff2&apos;);unicode-range:U+0102-0103, U+0110-0111, U+0128-0129, U+0168-0169, U+01A0-01A1, U+01AF-01B0, U+0300-0301, U+0303-0304, U+0308-0309, U+0323, U+0329, U+1EA0-1EF9, U+20AB}@font-face{font-family:&apos;Montserrat&apos;;font-style:normal;font-weight:400;font-display:block;src:url(https://design.penpot.app/internal/gfonts/font/montserrat/v26/JTUHjIg1_i6t8kCHKm4532VJOt5-QNFgpCtr6Hw3aXpsog.woff2) format(&apos;woff2&apos;);unicode-range:U+0100-02AF, U+0304, U+0308, U+0329, U+1E00-1E9F, U+1EF2-1EFF, U+2020, U+20A0-20AB, U+20AD-20C0, U+2113, U+2C60-2C7F, U+A720-A7FF}@font-face{font-family:&apos;Montserrat&apos;;font-style:normal;font-weight:400;font-display:block;src:url(https://design.penpot.app/internal/gfonts/font/montserrat/v26/JTUHjIg1_i6t8kCHKm4532VJOt5-QNFgpCtr6Hw5aXo.woff2) format(&apos;woff2&apos;);unicode-range:U+0000-00FF, U+0131, U+0152-0153, U+02BB-02BC, U+02C6, U+02DA, U+02DC, U+0304, U+0308, U+0329, U+2000-206F, U+2074, U+20AC, U+2122, U+2191, U+2193, U+2212, U+2215, U+FEFF, U+FFFD}</style><g id="shape-1cd32a24-47e5-8044-8005-0ccd849d4ffa" data-testid="Igaming-Software-Development"><g class="fills" id="fills-1cd32a24-47e5-8044-8005-0ccd849d4ffa"><rect rx="0" ry="0" width="187" height="40" class="frame-background"/></g><g class="frame-children"><g id="shape-1cd32a24-47e5-8044-8005-0ccc114bb960" data-testid="004-variante-de-balon-de-futbol" xml:space="preserve" style="fill: rgb(0, 0, 0);"><g id="shape-1cd32a24-47e5-8044-8005-0ccc11513dc8" data-testid="svg-path"><path d="M12.475 1.464a19.862 19.862 0 0 0-6.617 4.393A19.935 19.935 0 0 0 0 20c0 2.597.493 5.13 1.465 7.525a19.863 19.863 0 0 0 4.393 6.616 19.854 19.854 0 0 0 6.617 4.394 19.906 19.906 0 0 0 7.526 1.464 19.94 19.94 0 0 0 14.142-5.858 19.822 19.822 0 0 0 4.393-6.616A19.92 19.92 0 0 0 40 20a19.934 19.934 0 0 0-5.857-14.143 19.841 19.841 0 0 0-6.617-4.393A19.92 19.92 0 0 0 20.001 0c-2.598 0-5.13.492-7.526 1.464ZM4.999 28.419a13.692 13.692 0 0 1-2.637-2.121 18.854 18.854 0 0 1-.609-10.507c.374-.738.8-1.446 1.281-2.125.149-.209.287-.428.446-.631l4.513 2.671v.113a34.796 34.796 0 0 0 .726 7.212l.005.027-3.5 5.488a2.391 2.391 0 0 1-.225-.127Zm13.419 9.278c.779.398 1.58.733 2.403 1.006a18.763 18.763 0 0 1-10.148-2.457l7.566 1.348c.058.037.118.072.179.103Zm-.027-1.365-8.929-1.591a27.932 27.932 0 0 1-2.791-4.045c-.206-.365-.435-.719-.609-1.1l3.497-5.483c.077.02.163.04.261.066 2.188.585 4.414 1.001 6.656 1.328.131.018.24.034.333.044l4.192 7.247a160.728 160.728 0 0 1-2.214 3.046 9.079 9.079 0 0 1-.396.488Zm14.854-3.088a18.428 18.428 0 0 1-2.255 1.924 17.121 17.121 0 0 0-.676-3.074l4.473-8.344c1.232-.561 2.42-1.197 3.523-1.986.145-.102.265-.216.357-.341a18.63 18.63 0 0 1-5.422 11.821Zm-.198-10.82c.166.317.33.637.495.962l-4.32 8.059c-.025.005-.048.011-.073.014a39.403 39.403 0 0 1-7.063.679l-4.311-7.454a479.612 479.612 0 0 0 1.995-3.748c.447-.849.887-1.703 1.327-2.557l8.922-.916c1.093 1.602 2.128 3.239 3.028 4.961Zm-1.81-9.559c-.424 1.118-.877 2.225-1.327 3.334l-8.692.892a7.385 7.385 0 0 0-.325-.401c-1.026-1.162-2.059-2.317-3.091-3.475l.028-.031-1.249-1.248L19 4.65c.167-.044.335-.081.505-.099 1.315-.134 2.633-.285 3.951-.362.808-.045 1.62-.071 2.441-.013l5.987 6.748c-.206.651-.407 1.304-.647 1.941Zm2.008-6.11a18.624 18.624 0 0 1 3.835 5.553 19.018 19.018 0 0 0-3.572-1.92 10.423 10.423 0 0 0-.6-.222l-5.893-6.642a7.8 7.8 0 0 0 .071-.864 18.64 18.64 0 0 1 6.159 4.095ZM14.002 2.311c.024.018.035.032 0 0Zc1.395.501 2.62 1.186 3.775 2l-2.26 6.807a.196.196 0 0 0-.034.012c-.463.191-.934.362-1.39.57-1.876.852-3.705 1.797-5.429 2.929L4.203 11.99c.007-.139.031-.28.078-.407.3-.798.594-1.6.933-2.382a17.63 17.63 0 0 1 .883-1.753c.212-.235.432-.467.659-.693 2.118-2.118 4.622-3.622 7.246-4.444Zc.028-.046.014-.023 0 0Z" style="fill: rgb(0, 0, 0); fill-opacity: 1;" class="fills" id="fills-1cd32a24-47e5-8044-8005-0ccc11513dc8"/></g></g><g class="text-container" id="shape-1cd32a24-47e5-8044-8005-0ccb5dc7d05c" data-testid="Igaming Software Development"><defs><pattern patternUnits="userSpaceOnUse" x="48" y="0" width="129.017" height="34.8" id="fill-0-render-21-0"><rect width="129.017" height="34.8" style="fill: rgb(255, 255, 255); fill-opacity: 1;"/></pattern><pattern patternUnits="userSpaceOnUse" x="48" y="0" width="129.017" height="34.8" id="fill-1-render-21-0"><rect width="129.017" height="34.8" style="fill: rgb(255, 255, 255); fill-opacity: 1;"/></pattern></defs><text x="48" y="17.4" dominant-baseline="ideographic" textLength="129.017" lengthAdjust="spacingAndGlyphs" style="text-transform: none; font-family: Montserrat; letter-spacing: normal; font-style: normal; font-weight: 400; white-space: pre; font-size: 14px; text-decoration: rgb(255, 255, 255); direction: ltr; fill: rgb(255, 255, 255); fill-opacity: 1;" class="fills" id="fills-1cd32a24-47e5-8044-8005-0ccb5dc7d05c">Igaming Software </text><defs><pattern patternUnits="userSpaceOnUse" x="48" y="0" width="129.017" height="34.8" id="fill-0-render-21-1"><rect width="129.017" height="34.8" style="fill: rgb(255, 255, 255); fill-opacity: 1;"/></pattern><pattern patternUnits="userSpaceOnUse" x="48" y="0" width="129.017" height="34.8" id="fill-1-render-21-1"><rect width="129.017" height="34.8" style="fill: rgb(255, 255, 255); fill-opacity: 1;"/></pattern></defs><text x="48" y="34.2" dominant-baseline="ideographic" textLength="96.217" lengthAdjust="spacingAndGlyphs" style="text-transform: none; font-family: Montserrat; letter-spacing: normal; font-style: normal; font-weight: 400; white-space: pre; font-size: 14px; text-decoration: rgb(255, 255, 255); direction: ltr; fill: rgb(255, 255, 255); fill-opacity: 1;" class="fills">Development</text></g></g></g></svg>