<svg xmlns="http://www.w3.org/2000/svg" xmlns:xlink="http://www.w3.org/1999/xlink" viewBox="0 0 585.4 585.4"><defs><style>      .cls-1 {        fill: url(#Degradado_sin_nombre_8);      }    </style><linearGradient id="Degradado_sin_nombre_8" data-name="Degradado sin nombre 8" x1="81" y1="292.7" x2="504.4" y2="292.7" gradientUnits="userSpaceOnUse"><stop offset="0" stop-color="#b6359c"></stop><stop offset="1" stop-color="#b30050"></stop></linearGradient></defs><g><g id="Capa_1"><path class="cls-1" d="M292.7,0C198.3,0,121.5,76.8,121.5,171.2v97.8c0,1.1-1.4,3-2.4,3.3-9.3,3.1-16.8,5.8-23.7,8.4-8.2,3.2-14.4,12.3-14.4,21.2v224.6c0,8.8,6.2,17.9,14.3,21.2,63.1,25,129.5,37.7,197.4,37.7s134.3-12.7,197.4-37.7c8.2-3.2,14.3-12.3,14.3-21.2v-224.6c0-8.9-6.2-18-14.4-21.2-6.9-2.7-14.4-5.3-23.7-8.4-1.1-.4-2.4-2.2-2.4-3.3v-97.8c0-94.4-76.8-171.2-171.2-171.2ZM246.1,370.3c0-25.8,20.9-46.6,46.6-46.6s46.6,20.9,46.6,46.6-9.6,31.4-23.3,39.5v77.1c0,12.9-10.4,23.3-23.3,23.3s-23.3-10.4-23.3-23.3v-77.1c-13.7-8.1-23.3-22.4-23.3-39.5ZM405,171.2v84.4c-36.8-7.9-74.6-11.9-112.3-11.9-37.7,0-75.4,4-112.3,11.9v-84.3c0-61.9,50.4-112.3,112.3-112.3,61.9,0,112.3,50.4,112.3,112.3Z"></path></g></g></svg>