<svg xmlns="http://www.w3.org/2000/svg" xmlns:xlink="http://www.w3.org/1999/xlink" viewBox="0 0 512 512"><defs><style>      .cls-1 {        fill: url(#Degradado_sin_nombre_8-3);      }      .cls-2 {        fill: url(#Degradado_sin_nombre_8-2);      }      .cls-3 {        fill: url(#Degradado_sin_nombre_8);      }    </style><linearGradient id="Degradado_sin_nombre_8" data-name="Degradado sin nombre 8" x1="304" y1="424" x2="448" y2="424" gradientUnits="userSpaceOnUse"><stop offset="0" stop-color="#b6359c"></stop><stop offset="1" stop-color="#b30050"></stop></linearGradient><linearGradient id="Degradado_sin_nombre_8-2" data-name="Degradado sin nombre 8" x1="64" x2="208" xlink:href="#Degradado_sin_nombre_8"></linearGradient><linearGradient id="Degradado_sin_nombre_8-3" data-name="Degradado sin nombre 8" x1="96" y1="256.4" x2="416" y2="256.4" xlink:href="#Degradado_sin_nombre_8"></linearGradient></defs><g><g id="Capa_1"><g id="_19-Growth"><path class="cls-3" d="M432,368h-48c-44.2,0-80,35.8-80,80v16c0,8.8,7.2,16,16,16h48c44.2,0,80-35.8,80-80v-16c0-8.8-7.2-16-16-16Z"></path><path class="cls-2" d="M128,368h-48c-8.8,0-16,7.2-16,16v16c0,44.2,35.8,80,80,80h48c8.8,0,16-7.2,16-16v-16c0-44.2-35.8-80-80-80Z"></path><path class="cls-1" d="M416,192c-.4-88.4-72.4-159.6-160.8-159.2-88.4.4-159.6,72.4-159.2,160.8.4,81.9,62.5,150.2,144,158.4v112c0,8.8,7.2,16,16,16s16-7.2,16-16v-112c82.1-8.2,144.4-77.5,144-160ZM198.6,248c-5.2-7.1-3.6-17.2,3.5-22.4,7.1-5.2,17.2-3.6,22.4,3.5.6.9,1.2,1.8,1.6,2.8,2.9,5,8.2,8,13.9,8h32c8.8,0,16-7.2,16-16s-7.2-16-16-16h-32c-26.5,0-48-21.5-48-48s21.5-48,48-48v-16c0-8.8,7.2-16,16-16s16,7.2,16,16v16c17.1,0,32.9,9.2,41.4,24,5.2,7.1,3.6,17.2-3.5,22.4s-17.2,3.6-22.4-3.5c-.6-.9-1.2-1.8-1.6-2.8-2.9-5-8.2-8-13.9-8h-32c-8.8,0-16,7.2-16,16s7.2,16,16,16h32c26.5,0,48,21.5,48,48s-21.5,48-48,48v16c0,8.8-7.2,16-16,16s-16-7.2-16-16v-16c-17.1,0-32.9-9.2-41.4-24Z"></path></g></g></g></svg>