<svg xmlns="http://www.w3.org/2000/svg" xmlns:xlink="http://www.w3.org/1999/xlink" viewBox="0 0 512 512"><defs><style>      .cls-1 {        fill: url(#Degradado_sin_nombre_2);      }      .cls-2 {        fill: url(#Degradado_sin_nombre_2-3);      }      .cls-3 {        fill: url(#Degradado_sin_nombre_2-2);      }    </style><linearGradient id="Degradado_sin_nombre_2" data-name="Degradado sin nombre 2" x1="0" y1="210.6" x2="512" y2="210.6" gradientUnits="userSpaceOnUse"><stop offset="0" stop-color="#b6359c"></stop><stop offset="1" stop-color="#b30050"></stop></linearGradient><linearGradient id="Degradado_sin_nombre_2-2" data-name="Degradado sin nombre 2" x1="311.7" y1="353.3" x2="475.4" y2="353.3" xlink:href="#Degradado_sin_nombre_2"></linearGradient><linearGradient id="Degradado_sin_nombre_2-3" data-name="Degradado sin nombre 2" x1="237.8" y1="410.5" x2="356.5" y2="410.5" xlink:href="#Degradado_sin_nombre_2"></linearGradient></defs><g><g id="Capa_1"><g><path class="cls-1" d="M8.1,230.1c5.6,9.1,13.6,16.3,23.2,20.9,4.6,2.2,6.5,7.6,4.3,12.2-2.2,4.6-7.6,6.5-12.2,4.3-3.7-1.8-7.2-3.8-10.5-6.2,10,29.7,37.9,49.8,69.3,49.8h.5c-.5-5-.6-10.1-.4-15.2,4.1-48.8,45.1-86.1,94.1-85.4h52c5.1,0,9.1-4.1,9.1-9.1,0-15.1,12.3-27.4,27.4-27.4h27.4c5.1,0,9.1,4.1,9.1,9.1s-4.1,9.1-9.1,9.1h-27.4c-5.1,0-9.1,4.1-9.1,9.1,0,15.1-12.3,27.4-27.4,27.4h-52c-39.3-.7-72.4,29.1-75.8,68.3-.4,6.9,0,13.9,1.6,20.6.4,1.8.9,3.5,1.4,5.3,0,.3.2.7.3,1,.6,1.8,1.2,3.6,1.9,5.3l.2.5c8.8,21,26.7,36.7,48.6,42.7l.7.2c1.7.4,3.4.8,5.1,1.1.9.2,1.7.3,2.6.4,1.2.2,2.5.4,3.7.5,2.3.2,4.6.3,6.8.3,23.1,0,44.9-11.1,58.7-29.6-4.3-2.8-8.5-5.8-12.5-9.1-3.9-3.2-4.4-9-1.2-12.9,3.2-3.9,9-4.4,12.9-1.2,25.3,21,58.6,29.6,90.9,23.3,32.3-6.3,60-26.7,75.6-55.6-4.9-6.7-8.6-14.1-11.1-22-1.4-4.8,1.4-9.9,6.2-11.3,4.8-1.4,9.9,1.3,11.3,6.1,7.1,24,29.6,40.2,54.6,39.3s46.3-18.7,51.6-43.2c5.3-24.5-6.6-49.5-29-60.7-1.2,5.3-2.7,10.5-4.7,15.6-1.8,4.7-7.1,7-11.8,5.2-4.7-1.8-7-7.1-5.2-11.8,2.9-7.4,4.8-15.1,5.6-23,.1-1.3.2-2.4.3-3.7.2-2.2.3-4.4.3-6.6,0-39.6-25.6-74.7-63.3-86.9,2.9,4.3,5.4,8.9,7.6,13.6,1.5,3,1.3,6.6-.6,9.3s-5.2,4.3-8.5,3.9c-3.3-.4-6.2-2.5-7.5-5.6-20-42.8-69.2-63.5-113.8-47.7-6.7,2.3-13.2,5.4-19.2,9.2-4.2,2.8-9.9,1.6-12.7-2.7s-1.6-9.9,2.7-12.7c1.4-.9,2.8-1.7,4.2-2.5-19.4-9.2-42.1-7.9-60.2,3.5,4.2,3.7,8,8,11.3,12.6,1.9,2.7,2.3,6.2.9,9.2s-4.3,5-7.6,5.3c-3.3.3-6.5-1.3-8.3-4-4.3-6.1-9.8-11.3-16.2-15.3h0c-23.8-14.8-55-9.1-72,13.2,3.6,1,7.1,2.3,10.6,3.9,3,1.4,5.1,4.2,5.4,7.5.3,3.3-1.2,6.5-4,8.4-2.7,1.9-6.3,2.1-9.2.6-14.8-7-32-7-46.8,0-14.8,7-25.7,20.2-29.8,36.1,4.9-1.9,10-3.2,15.2-4,5-.7,9.6,2.8,10.3,7.8s-2.8,9.6-7.8,10.3c-8.4,1.2-16.3,4.3-23.3,9.1h-.1C-.2,172.9-7.1,205,8,229.8c0,.1,0,.2.1.3Z"></path><path class="cls-3" d="M388.5,402.6c47.9,0,86.9-30.8,86.9-68.6,0-5.3-.8-10.5-2.3-15.5-21.7,5-44.6-.4-61.9-14.5-21.4,35.3-58.4,58.1-99.5,61.6,13.2,18.5,33.3,31.1,55.8,34.9,6.9,1.4,14,2.1,21,2.1Z"></path><path class="cls-2" d="M290.7,365.4c-12.9-1.1-25.5-4.2-37.4-9.1-.3,0-.7-.1-1-.2-.9-.4-1.8-.9-2.7-1.3-.4-.2-.8-.3-1.1-.4-3.2,4.5-6.7,8.6-10.7,12.5.5,14.8,12.6,26.5,27.3,26.5,8.2-.2,16,3.2,21.5,9.3l52.9,60.6c1.9,2.1,4.5,3.2,7.3,3.3,5.4,0,9.7-4.3,9.8-9.7v-40.4c-28.4-6.6-52.4-25.2-65.8-51.1Z"></path></g></g></g></svg>