<svg xmlns="http://www.w3.org/2000/svg" xmlns:xlink="http://www.w3.org/1999/xlink" viewBox="0 0 509 509"><defs><style>      .cls-1 {        fill: url(#Degradado_sin_nombre_4-4);      }      .cls-2 {        fill: url(#Degradado_sin_nombre_4-2);      }      .cls-3 {        fill: url(#Degradado_sin_nombre_4);      }      .cls-4 {        fill: url(#Degradado_sin_nombre_4-3);      }    </style><linearGradient id="Degradado_sin_nombre_4" data-name="Degradado sin nombre 4" x1="3.7" y1="384.4" x2="159.7" y2="384.4" gradientUnits="userSpaceOnUse"><stop offset="0" stop-color="#b6359c"></stop><stop offset="1" stop-color="#b30050"></stop></linearGradient><linearGradient id="Degradado_sin_nombre_4-2" data-name="Degradado sin nombre 4" x1="125.3" y1="219.8" x2="419.7" y2="219.8" xlink:href="#Degradado_sin_nombre_4"></linearGradient><linearGradient id="Degradado_sin_nombre_4-3" data-name="Degradado sin nombre 4" x1="3.7" y1="80" x2="159.7" y2="80" xlink:href="#Degradado_sin_nombre_4"></linearGradient><linearGradient id="Degradado_sin_nombre_4-4" data-name="Degradado sin nombre 4" x1="350.4" y1="341" x2="506.3" y2="341" xlink:href="#Degradado_sin_nombre_4"></linearGradient></defs><g><g id="Capa_1"><g><path class="cls-3" d="M38.3,396.3v17.3c0,6.3,3.5,12.2,9.1,15.2-.2.7-.4,1.4-.4,2.2v52c0,14.4,11.6,26,26,26h17.3c14.4,0,26-11.6,26-26v-52c0-.7-.2-1.5-.4-2.2,5.6-3,9.1-8.8,9.1-15.2v-17.3c25.8-16.4,39-46.8,33.4-76.9-5.6-30-28.9-53.7-58.8-59.7,11.4,15.8,16.7,46.6,16.7,75.9.4,20.6-2.7,41.1-9.1,60.7h-17.9c0-1.2.2-2.3.7-3.4,6.5-18.4,9.6-37.8,9-57.3,0-45.5-12.9-69.3-17.3-69.3s-17.3,23.8-17.3,69.3c-.6,19.5,2.5,38.9,9,57.3.5,1.1.7,2.2.7,3.4h-17.9c-6.4-19.6-9.5-40.1-9.1-60.7,0-29.3,5.4-60.1,16.7-75.9-29.9,6.1-53.2,29.7-58.8,59.7-5.6,30,7.6,60.5,33.4,76.9ZM64.3,431h34.7v26h-34.7v-26Z"></path><path class="cls-2" d="M203,149.3c0-69.8,17.3-126.4,43.2-149.2-36.6,6.5-69.4,26.7-91.6,56.5,14.2,10.1,22.5,26.5,22.4,43.9.5,28.9-22.6,52.7-51.5,53.2h-.3c1.3,45,23.7,86.7,60.4,112.7v17.3c0,6.3,3.5,12.1,9.1,15.1-.5,1.5-.5,3.1,0,4.6l17,59.5v42.1c0,19.1,15.5,34.7,34.7,34.7h52c19.1,0,34.7-15.5,34.7-34.7v-42.1l17-59.5c.4-1.5.4-3.1,0-4.6,1.5-.8,2.9-1.8,4.1-3,3.2-3.2,5-7.6,5-12.1v-17.3c14.5-10,26.9-22.7,36.5-37.4,9.7-14.8,16.5-31.1,20.3-48.4.1-.3.2-.6.2-.9,2.5-11.4,3.8-23.1,3.7-34.8C419.7,73.7,368.6,12.6,298.4,0c25.8,22.8,43.2,79.5,43.2,149.3.9,40-6.3,79.8-21.2,117h-18.2c0-1.3.3-2.6.9-3.8,13.5-27.7,21.2-69,21.2-113.2,0-84.2-27.4-143-52-143s-52,58.8-52,143,7.7,85.5,21.2,113.2c.6,1.2.9,2.5.9,3.8h-18.2c-14.9-37.2-22.1-77-21.2-117ZM246.3,405h-17.3v-17.3h17.3c4.8,0,8.7,3.9,8.7,8.7s-3.9,8.7-8.7,8.7ZM281,301h51.7l-14.9,52h-36.8v-52ZM281,387.7h34.7v17.3h-34.7c-4.8,0-8.7-3.9-8.7-8.7s3.9-8.7,8.7-8.7ZM263.7,301v52h-36.8l-14.9-52h51.7Z"></path><path class="cls-4" d="M3.7,105.6c-.4,16.6,12.7,30.3,29.3,30.7h92.6c19.3-.5,34.6-16.5,34.1-35.8.5-19.3-14.8-35.4-34.1-35.9h-14.6c.5-22.1-16.9-40.4-39-41-22.1.6-39.5,18.9-39,41,0,3.5.5,7,1.4,10.4-.5,0-.9-.1-1.4-.1-16.6.4-29.6,14.2-29.3,30.7Z"></path><path class="cls-1" d="M437,257.7c.5-19.3-2.5-38.6-8.8-56.9-4.3,13.3-10.5,26-18.2,37.7-2.3,3.6-4.9,7.1-7.5,10.4,0,2.9-.2,5.8-.2,8.8-.6,19.5,2.5,38.9,9,57.3.5,1.1.7,2.2.7,3.4h-17.9c-5.5-16.4-8.5-33.5-8.8-50.8-2.9,2.6-5.9,5.1-8.9,7.5v8.7c0,9.2-3.6,17.9-10.1,24.4-.4.4-.8.8-1.2,1.1,3.5,3.4,7.3,6.5,11.4,9.2v17.3c0,6.3,3.5,12.2,9.1,15.2-.2.7-.4,1.4-.4,2.2v55.1c-3.5,6.3-5.4,13.3-5.4,20.5,0,3.5.5,7,1.4,10.4-.5,0-.9-.1-1.4-.1-16.4.8-29.2,14.3-29.2,30.7s12.8,29.9,29.2,30.7h92.6c19.1-1,34-16.7,34-35.9s-15-34.9-34-35.8h-14.6c-.1-4.7-1.3-9.4-3.3-13.7v-62c0-.7-.2-1.5-.4-2.2,5.6-3,9.1-8.8,9.1-15.2v-17.3c25.8-16.4,39-46.8,33.4-76.9-5.6-30-28.8-53.7-58.8-59.7,11.4,15.8,16.7,46.6,16.7,75.9.4,20.6-2.7,41.1-9.1,60.7h-17.9c0-1.2.2-2.3.7-3.4,6.5-18.4,9.6-37.8,9-57.3ZM437,353v40.7c-5.4-3.8-11.8-5.9-18.4-6.1-5.6,0-11.2,1.3-16.3,3.8v-38.5h34.7Z"></path></g></g></g></svg>