<svg xmlns="http://www.w3.org/2000/svg" xmlns:xlink="http://www.w3.org/1999/xlink" viewBox="0 0 512 512"><defs><style>      .cls-1 {        fill: url(#Degradado_sin_nombre_6);      }    </style><linearGradient id="Degradado_sin_nombre_6" data-name="Degradado sin nombre 6" x1="0" y1="256" x2="512" y2="256" gradientUnits="userSpaceOnUse"><stop offset="0" stop-color="#b6359c"></stop><stop offset="1" stop-color="#b30050"></stop></linearGradient></defs><g><g id="Layer_1"><path class="cls-1" d="M256,0C114.8,0,0,114.8,0,256s114.8,256,256,256,256-114.8,256-256S397.2,0,256,0ZM357.8,265l-149.3,96c-1.8,1.1-3.8,1.7-5.8,1.7s-3.5-.4-5.1-1.3c-3.4-1.9-5.6-5.5-5.6-9.4v-192c0-3.9,2.1-7.5,5.6-9.4,3.4-1.9,7.6-1.7,10.9.4l149.3,96c3,2,4.9,5.3,4.9,9s-1.9,7-4.9,9Z"></path></g></g></svg>