<svg xmlns="http://www.w3.org/2000/svg" xmlns:xlink="http://www.w3.org/1999/xlink" viewBox="0 0 512 512"><defs><style>      .cls-1 {        fill: url(#Degradado_sin_nombre_4-4);      }      .cls-2 {        fill: url(#Degradado_sin_nombre_4-2);      }      .cls-3 {        fill: url(#Degradado_sin_nombre_4);      }      .cls-4 {        fill: url(#Degradado_sin_nombre_4-3);      }    </style><linearGradient id="Degradado_sin_nombre_4" data-name="Degradado sin nombre 4" x1="42.7" y1="105.3" x2="306.1" y2="105.3" gradientUnits="userSpaceOnUse"><stop offset="0" stop-color="#D4AF37"></stop><stop offset="1" stop-color="#C5A028"></stop></linearGradient><linearGradient id="Degradado_sin_nombre_4-2" data-name="Degradado sin nombre 4" x1="301.4" y1="174.4" x2="512" y2="174.4" xlink:href="#Degradado_sin_nombre_4"></linearGradient><linearGradient id="Degradado_sin_nombre_4-3" data-name="Degradado sin nombre 4" x1="205.9" y1="406.7" x2="469.3" y2="406.7" xlink:href="#Degradado_sin_nombre_4"></linearGradient><linearGradient id="Degradado_sin_nombre_4-4" data-name="Degradado sin nombre 4" x1="0" y1="337.6" x2="210.6" y2="337.6" xlink:href="#Degradado_sin_nombre_4"></linearGradient></defs><g><g id="Layer_1"><g><path class="cls-3" d="M301.2,71.7L234.4,4.9c-4.8-4.8-12-6.2-18.2-3.6-6.2,2.6-10.3,8.7-10.3,15.4v22.3C126.3,57.3,65,116.8,42.7,192.6l5.4-5.4c9.5-9.5,22-14.7,35.4-14.7s26,5.2,35.4,14.7l23.4,23.4c11.7-29.3,34.3-53.3,63.6-66.4v6.1c0,6.8,4.1,12.8,10.3,15.4,6.2,2.6,13.4,1.2,18.2-3.6l66.8-66.8c6.5-6.5,6.5-17.1,0-23.6Z"></path><path class="cls-2" d="M510.7,216.2c-2.6-6.2-8.7-10.3-15.4-10.3h-22.3c-18.2-79.6-77.7-141-153.6-163.3l5.4,5.4c9.5,9.4,14.7,22,14.7,35.4s-5.2,26-14.7,35.4l-23.4,23.4c29.3,11.7,53.3,34.3,66.4,63.6h-6.1c-6.8,0-12.8,4.1-15.4,10.3-2.6,6.2-1.2,13.4,3.6,18.2l66.8,66.8c3.3,3.3,7.5,4.9,11.8,4.9s8.5-1.6,11.8-4.9l66.8-66.8c4.8-4.8,6.2-12,3.6-18.2Z"></path><path class="cls-4" d="M463.9,324.8c-9.5,9.5-22,14.7-35.4,14.7s-26-5.2-35.4-14.7l-23.4-23.4c-11.7,29.3-34.3,53.3-63.6,66.4v-6.1c0-6.8-4.1-12.8-10.3-15.4-6.2-2.6-13.4-1.2-18.2,3.6l-66.8,66.8c-6.5,6.5-6.5,17.1,0,23.6l66.8,66.8c3.2,3.2,7.5,4.9,11.8,4.9s4.3-.4,6.4-1.3c6.2-2.6,10.3-8.7,10.3-15.4v-22.3c79.6-18.2,140.9-77.7,163.3-153.6l-5.4,5.4Z"></path><path class="cls-1" d="M172.5,428.5c0-13.4,5.2-26,14.7-35.4l23.4-23.4c-29.3-11.7-53.3-34.3-66.4-63.6h6.1c6.8,0,12.8-4.1,15.4-10.3,2.6-6.2,1.2-13.4-3.6-18.2l-66.8-66.8c-6.5-6.5-17.1-6.5-23.6,0L4.9,277.6c-4.8,4.8-6.2,12-3.6,18.2,2.6,6.2,8.7,10.3,15.4,10.3h22.3c18.2,79.6,77.7,141,153.6,163.3l-5.4-5.4c-9.5-9.4-14.7-22-14.7-35.4Z"></path></g></g></g></svg>