<svg xmlns="http://www.w3.org/2000/svg" xmlns:xlink="http://www.w3.org/1999/xlink" viewBox="0 0 512 512"><defs><style>      .cls-1 {        fill: url(#Degradado_sin_nombre_8-4);      }      .cls-2 {        fill: url(#Degradado_sin_nombre_8-3);      }      .cls-3 {        fill: url(#Degradado_sin_nombre_8-2);      }      .cls-4 {        fill: url(#Degradado_sin_nombre_8);      }    </style><linearGradient id="Degradado_sin_nombre_8" data-name="Degradado sin nombre 8" x1="215.4" y1="384.8" x2="310.6" y2="384.8" gradientUnits="userSpaceOnUse"><stop offset="0" stop-color="#D4AF37"></stop><stop offset="1" stop-color="#C5A028"></stop></linearGradient><linearGradient id="Degradado_sin_nombre_8-2" data-name="Degradado sin nombre 8" x1="371.2" y1="326.3" x2="466.4" y2="326.3" xlink:href="#Degradado_sin_nombre_8"></linearGradient><linearGradient id="Degradado_sin_nombre_8-3" data-name="Degradado sin nombre 8" x1="59.6" y1="416.4" x2="154.8" y2="416.4" xlink:href="#Degradado_sin_nombre_8"></linearGradient><linearGradient id="Degradado_sin_nombre_8-4" data-name="Degradado sin nombre 8" x1="40.3" y1="162.3" x2="471.7" y2="162.3" xlink:href="#Degradado_sin_nombre_8"></linearGradient></defs><g><g id="Layer_1"><g><rect class="cls-4" x="215.4" y="286.9" width="95.2" height="195.9" rx="8" ry="8"></rect><rect class="cls-3" x="371.2" y="169.8" width="95.2" height="312.9" rx="8" ry="8"></rect><rect class="cls-2" x="59.6" y="350.1" width="95.2" height="132.6" rx="8" ry="8"></rect><path class="cls-1" d="M90.7,295.3c27,0,49-21.3,50.2-48,26.3-7.2,52.3-16.1,77.4-26.9,9.2,10.4,22.7,17,37.6,17,27.8,0,50.4-22.6,50.4-50.4s-.6-8.4-1.6-12.4c28.2-18,54.9-38.5,79.6-61,9.2,10,22.4,16.3,37,16.3,27.8,0,50.4-22.6,50.4-50.4s-22.6-50.4-50.4-50.4-50.4,22.6-50.4,50.4,1.6,14.3,4.4,20.6c-23.9,22-49.8,42-77.1,59.6-9-13.9-24.6-23.1-42.3-23.1-27.8,0-50.4,22.6-50.4,50.4s1.4,13.6,4,19.6c-22.9,9.7-46.6,17.8-70.5,24.5-6-21.1-25.4-36.6-48.4-36.6s-50.4,22.6-50.4,50.4,22.6,50.4,50.4,50.4h0Z"></path></g></g></g></svg>