<svg xmlns="http://www.w3.org/2000/svg" xmlns:xlink="http://www.w3.org/1999/xlink" viewBox="0 0 512 512"><defs><style>      .cls-1 {        fill: url(#Degradado_sin_nombre_2);      }      .cls-2 {        fill: url(#Degradado_sin_nombre_2-3);      }      .cls-3 {        fill: url(#Degradado_sin_nombre_2-2);      }    </style><linearGradient id="Degradado_sin_nombre_2" data-name="Degradado sin nombre 2" x1="16" y1="256" x2="496" y2="256" gradientUnits="userSpaceOnUse"><stop offset="0" stop-color="#D4AF37"></stop><stop offset="1" stop-color="#C5A028"></stop></linearGradient><linearGradient id="Degradado_sin_nombre_2-2" data-name="Degradado sin nombre 2" x1="87.1" y1="93.6" x2="362.9" y2="93.6" xlink:href="#Degradado_sin_nombre_2"></linearGradient><linearGradient id="Degradado_sin_nombre_2-3" data-name="Degradado sin nombre 2" x1="408.5" y1="308.5" x2="496" y2="308.5" xlink:href="#Degradado_sin_nombre_2"></linearGradient></defs><g><g id="Layer_2"><g><path class="cls-1" d="M448,130.1H84.5c-20.1,0-36.5-16.3-36.5-36.5s16.3-36.5,36.5-36.5h262.4c8.8,0,16-7.2,16-16s-7.2-16-16-16H84.5c-37.8,0-68.4,30.7-68.5,68.4h0v307.4c0,47.4,38.5,85.9,85.9,85.9h325.6c37.8,0,68.4-30.7,68.5-68.5v-41.4h-55.5c-35.3,0-64-28.7-64-64v-9c0-35.3,28.7-64,64-64h55.5v-61.9c0-26.5-21.5-48-48-48h0Z"></path><path class="cls-3" d="M103.1,77.6c-8.8,0-16,7.2-16,16s7.2,16,16,16h243.8c8.8,0,16-7.2,16-16s-7.2-16-16-16H103.1Z"></path><path class="cls-2" d="M408.5,304v9c0,17.7,14.3,31.9,32,32h55.5v-73h-55.5c-17.7,0-31.9,14.3-32,32Z"></path></g></g></g></svg>