<svg width="162" xmlns="http://www.w3.org/2000/svg" height="40" id="screenshot-1cd32a24-47e5-8044-8005-0cccd5cb8fcc" fill="none" version="1.1"><style>@font-face{font-family:&apos;Montserrat&apos;;font-style:normal;font-weight:400;font-display:block;src:url(https://design.penpot.app/internal/gfonts/font/montserrat/v26/JTUHjIg1_i6t8kCHKm4532VJOt5-QNFgpCtr6Hw0aXpsog.woff2) format(&apos;woff2&apos;);unicode-range:U+0460-052F, U+1C80-1C88, U+20B4, U+2DE0-2DFF, U+A640-A69F, U+FE2E-FE2F}@font-face{font-family:&apos;Montserrat&apos;;font-style:normal;font-weight:400;font-display:block;src:url(https://design.penpot.app/internal/gfonts/font/montserrat/v26/JTUHjIg1_i6t8kCHKm4532VJOt5-QNFgpCtr6Hw9aXpsog.woff2) format(&apos;woff2&apos;);unicode-range:U+0301, U+0400-045F, U+0490-0491, U+04B0-04B1, U+2116}@font-face{font-family:&apos;Montserrat&apos;;font-style:normal;font-weight:400;font-display:block;src:url(https://design.penpot.app/internal/gfonts/font/montserrat/v26/JTUHjIg1_i6t8kCHKm4532VJOt5-QNFgpCtr6Hw2aXpsog.woff2) format(&apos;woff2&apos;);unicode-range:U+0102-0103, U+0110-0111, U+0128-0129, U+0168-0169, U+01A0-01A1, U+01AF-01B0, U+0300-0301, U+0303-0304, U+0308-0309, U+0323, U+0329, U+1EA0-1EF9, U+20AB}@font-face{font-family:&apos;Montserrat&apos;;font-style:normal;font-weight:400;font-display:block;src:url(https://design.penpot.app/internal/gfonts/font/montserrat/v26/JTUHjIg1_i6t8kCHKm4532VJOt5-QNFgpCtr6Hw3aXpsog.woff2) format(&apos;woff2&apos;);unicode-range:U+0100-02AF, U+0304, U+0308, U+0329, U+1E00-1E9F, U+1EF2-1EFF, U+2020, U+20A0-20AB, U+20AD-20C0, U+2113, U+2C60-2C7F, U+A720-A7FF}@font-face{font-family:&apos;Montserrat&apos;;font-style:normal;font-weight:400;font-display:block;src:url(https://design.penpot.app/internal/gfonts/font/montserrat/v26/JTUHjIg1_i6t8kCHKm4532VJOt5-QNFgpCtr6Hw5aXo.woff2) format(&apos;woff2&apos;);unicode-range:U+0000-00FF, U+0131, U+0152-0153, U+02BB-02BC, U+02C6, U+02DA, U+02DC, U+0304, U+0308, U+0329, U+2000-206F, U+2074, U+20AC, U+2122, U+2191, U+2193, U+2212, U+2215, U+FEFF, U+FFFD}</style><g id="shape-1cd32a24-47e5-8044-8005-0cccd5cb8fcc" data-testid="Multi-Currency-Support"><g class="fills" id="fills-1cd32a24-47e5-8044-8005-0cccd5cb8fcc"><rect rx="0" ry="0" width="162" height="40" class="frame-background"/></g><g class="frame-children"><g id="shape-c134eb71-db9f-8039-8005-0e13357fa2b9" data-testid="002-monedas" xml:space="preserve" style="fill: rgb(0, 0, 0);"><g id="shape-c134eb71-db9f-8039-8005-0e13357fa2bb" data-testid="svg-path"><path d="M20 22.382c-8.168 0-15.098-2.641-18.549-6.589v.795C1.53 22.054 9.85 26.514 20 26.514c10.023 0 18.516-4.573 18.549-9.987v-.735c-3.45 3.948-10.38 6.59-18.549 6.59Z" style="fill: rgb(0, 0, 0); fill-opacity: 1;" class="fills" id="fills-c134eb71-db9f-8039-8005-0e13357fa2bb"/></g><g id="shape-c134eb71-db9f-8039-8005-0e13357fa2bc" data-testid="svg-path"><path d="M20 28.858c-8.149 0-15.092-2.65-18.549-6.603v1.056C1.53 28.777 9.85 33.237 20 33.237c10.023 0 18.516-4.573 18.549-9.987v-.99C35.096 26.213 28.161 28.858 20 28.858Z" style="fill: rgb(0, 0, 0); fill-opacity: 1;" class="fills" id="fills-c134eb71-db9f-8039-8005-0e13357fa2bc"/></g><g id="shape-c134eb71-db9f-8039-8005-0e13357fa2bd" data-testid="svg-path"><path d="M20 35.581c-8.149 0-15.092-2.65-18.549-6.603v1.095C1.53 35.54 9.85 40 20 40c10.023 0 18.516-4.574 18.549-9.987v-1.03C35.096 32.936 28.161 35.581 20 35.581Z" style="fill: rgb(0, 0, 0); fill-opacity: 1;" class="fills" id="fills-c134eb71-db9f-8039-8005-0e13357fa2bd"/></g><g id="shape-c134eb71-db9f-8039-8005-0e13357fa2be" data-testid="svg-path"><path d="M23.9 12.609c0-.349-.193-.612-.578-.791-.386-.179-.978-.313-1.775-.404v2.34c1.569-.133 2.353-.515 2.353-1.145Z" style="fill: rgb(0, 0, 0); fill-opacity: 1;" class="fills" id="fills-c134eb71-db9f-8039-8005-0e13357fa2be"/></g><g id="shape-c134eb71-db9f-8039-8005-0e13357fa2bf" data-testid="svg-path"><path d="M16.689 8.238c.404.183 1.018.324 1.84.424V6.271c-.923.067-1.562.201-1.917.405-.354.203-.531.458-.531.765 0 .349.202.615.608.797Z" style="fill: rgb(0, 0, 0); fill-opacity: 1;" class="fills" id="fills-c134eb71-db9f-8039-8005-0e13357fa2bf"/></g><g id="shape-c134eb71-db9f-8039-8005-0e13357fa2c0" data-testid="svg-path"><path d="M20 20.038c10.055 0 18.549-4.588 18.549-10.019S30.055 0 20 0C9.946 0 1.451 4.588 1.451 10.019S9.946 20.038 20 20.038ZM12.38 6.103c.304-.427.74-.797 1.31-1.108.569-.311 1.262-.562 2.078-.754.816-.19 1.737-.323 2.761-.398V2.561h3.018v1.245c.923.033 1.863.102 2.818.205.955.105 1.832.248 2.628.43v2.465c-1.948-.415-3.763-.647-5.446-.697v2.764a33.83 33.83 0 0 1 2.363.33 9.5 9.5 0 0 1 2.087.597c.614.262 1.114.604 1.5 1.027.385.423.579.967.579 1.631 0 1.063-.567 1.897-1.698 2.503-1.133.606-2.743.983-4.831 1.132v1.283h-3.018v-1.22a39.464 39.464 0 0 1-3.501-.218c-1.094-.121-2.002-.289-2.724-.504v-2.44c.494.117.975.218 1.443.306a25.622 25.622 0 0 0 2.999.373c.543.037 1.138.06 1.783.068v-2.726a35.222 35.222 0 0 1-2.371-.305 9.738 9.738 0 0 1-2.117-.579c-.626-.257-1.135-.598-1.527-1.021-.393-.423-.588-.971-.588-1.643a2.462 2.462 0 0 1 .454-1.464Z" style="fill: rgb(0, 0, 0); fill-opacity: 1;" class="fills" id="fills-c134eb71-db9f-8039-8005-0e13357fa2c0"/></g></g><g class="text-container" id="shape-1cd32a24-47e5-8044-8005-0ccb14ae585c" data-testid="Multi-Currency Support"><defs><pattern patternUnits="userSpaceOnUse" x="48" y="0" width="108.55" height="34.8" id="fill-0-render-10-0"><rect width="108.55" height="34.8" style="fill: rgb(255, 255, 255); fill-opacity: 1;"/></pattern><pattern patternUnits="userSpaceOnUse" x="48" y="0" width="108.55" height="34.8" id="fill-1-render-10-0"><rect width="108.55" height="34.8" style="fill: rgb(255, 255, 255); fill-opacity: 1;"/></pattern></defs><text x="48" y="17.4" dominant-baseline="ideographic" textLength="108.55" lengthAdjust="spacingAndGlyphs" style="text-transform: none; font-family: Montserrat; letter-spacing: normal; font-style: normal; font-weight: 400; white-space: pre; font-size: 14px; text-decoration: rgb(255, 255, 255); direction: ltr; fill: rgb(255, 255, 255); fill-opacity: 1;" class="fills" id="fills-1cd32a24-47e5-8044-8005-0ccb14ae585c">Multi-Currency </text><defs><pattern patternUnits="userSpaceOnUse" x="48" y="0" width="108.55" height="34.8" id="fill-0-render-10-1"><rect width="108.55" height="34.8" style="fill: rgb(255, 255, 255); fill-opacity: 1;"/></pattern><pattern patternUnits="userSpaceOnUse" x="48" y="0" width="108.55" height="34.8" id="fill-1-render-10-1"><rect width="108.55" height="34.8" style="fill: rgb(255, 255, 255); fill-opacity: 1;"/></pattern></defs><text x="48" y="34.2" dominant-baseline="ideographic" textLength="57.3" lengthAdjust="spacingAndGlyphs" style="text-transform: none; font-family: Montserrat; letter-spacing: normal; font-style: normal; font-weight: 400; white-space: pre; font-size: 14px; text-decoration: rgb(255, 255, 255); direction: ltr; fill: rgb(255, 255, 255); fill-opacity: 1;" class="fills">Support</text></g></g></g></svg>