<?xml version="1.0" encoding="utf-8"?>
<!-- Uploaded to: SVG Repo, www.svgrepo.com, Generator: SVG Repo Mixer Tools -->
<svg fill="#000000" width="800px" height="800px" viewBox="0 0 32 32" version="1.1" xmlns="http://www.w3.org/2000/svg">
<title>rainbow</title>
<path d="M16 8.25c-0.187-0.009-0.407-0.014-0.628-0.014-7.807 0-14.136 6.329-14.136 14.136 0 0.221 0.005 0.44 0.015 0.659l-0.001-0.031c0 0.414 0.336 0.75 0.75 0.75s0.75-0.336 0.75-0.75v0c-0.008-0.168-0.013-0.365-0.013-0.563 0-7.014 5.686-12.699 12.699-12.699 0.198 0 0.395 0.005 0.591 0.014l-0.028-0.001c0.168-0.008 0.365-0.012 0.563-0.012 7.014 0 12.7 5.686 12.7 12.7 0 0.198-0.005 0.395-0.014 0.591l0.001-0.028c0 0.414 0.336 0.75 0.75 0.75s0.75-0.336 0.75-0.75v0c0.009-0.187 0.014-0.407 0.014-0.627 0-7.808-6.329-14.137-14.137-14.137-0.221 0-0.44 0.005-0.658 0.015l0.031-0.001zM16 12.25c-0.103-0.004-0.225-0.006-0.346-0.006-5.749 0-10.409 4.66-10.409 10.409 0 0.122 0.002 0.243 0.006 0.364l-0-0.018c0 0.414 0.336 0.75 0.75 0.75s0.75-0.336 0.75-0.75v0c-0.006-0.117-0.009-0.255-0.009-0.393 0-4.896 3.969-8.865 8.865-8.865 0.138 0 0.276 0.003 0.413 0.009l-0.019-0.001c0.044-0.001 0.096-0.001 0.147-0.001 2.386 0 4.568 0.875 6.242 2.322l-0.012-0.010c1.774 1.643 2.88 3.985 2.88 6.585 0 0.125-0.003 0.248-0.008 0.372l0.001-0.018c0 0.414 0.336 0.75 0.75 0.75s0.75-0.336 0.75-0.75v0c0.004-0.103 0.006-0.225 0.006-0.346 0-5.749-4.66-10.409-10.409-10.409-0.122 0-0.243 0.002-0.364 0.006l0.018-0zM16 16.25c-0.065-0.002-0.141-0.004-0.218-0.004-3.61 0-6.536 2.926-6.536 6.536 0 0.077 0.001 0.153 0.004 0.229l-0-0.011c0 0.414 0.336 0.75 0.75 0.75s0.75-0.336 0.75-0.75v0c-0.003-0.067-0.005-0.145-0.005-0.223 0-2.779 2.253-5.032 5.032-5.032 0.079 0 0.157 0.002 0.234 0.005l-0.011-0c0.027-0 0.058-0.001 0.089-0.001 1.355 0 2.594 0.496 3.544 1.317l-0.007-0.006c1.002 0.932 1.627 2.257 1.627 3.729 0 0.074-0.002 0.148-0.005 0.221l0-0.010c0 0.414 0.336 0.75 0.75 0.75s0.75-0.336 0.75-0.75v0c0.002-0.065 0.004-0.141 0.004-0.217 0-3.61-2.926-6.536-6.536-6.536-0.076 0-0.152 0.001-0.228 0.004l0.011-0zM13.25 23c0 0.414 0.336 0.75 0.75 0.75s0.75-0.336 0.75-0.75v0c0-0.69 0.56-1.25 1.25-1.25s1.25 0.56 1.25 1.25v0c0 0.414 0.336 0.75 0.75 0.75s0.75-0.336 0.75-0.75v0c-0.024-1.5-1.246-2.707-2.75-2.707s-2.726 1.207-2.75 2.705l-0 0.002z"></path>
</svg>