<svg xmlns="http://www.w3.org/2000/svg" xmlns:xlink="http://www.w3.org/1999/xlink" viewBox="0 0 512 512"><defs><style>      .cls-1 {        fill: url(#Degradado_sin_nombre_2-4);      }      .cls-2 {        fill: url(#Degradado_sin_nombre_2);      }      .cls-3 {        fill: url(#Degradado_sin_nombre_2-3);      }      .cls-4 {        fill: url(#Degradado_sin_nombre_2-2);      }    </style><linearGradient id="Degradado_sin_nombre_2" data-name="Degradado sin nombre 2" x1="131.8" y1="331.5" x2="427.8" y2="331.5" gradientUnits="userSpaceOnUse"><stop offset="0" stop-color="#b6359c"></stop><stop offset="1" stop-color="#b30050"></stop></linearGradient><linearGradient id="Degradado_sin_nombre_2-2" data-name="Degradado sin nombre 2" x1="84" y1="123.6" x2="145.9" y2="123.6" xlink:href="#Degradado_sin_nombre_2"></linearGradient><linearGradient id="Degradado_sin_nombre_2-3" data-name="Degradado sin nombre 2" x1="156.4" y1="86.1" x2="266.7" y2="86.1" xlink:href="#Degradado_sin_nombre_2"></linearGradient><linearGradient id="Degradado_sin_nombre_2-4" data-name="Degradado sin nombre 2" x1="255.7" y1="88.6" x2="377.4" y2="88.6" xlink:href="#Degradado_sin_nombre_2"></linearGradient></defs><g><g id="Capa_1"><g><path class="cls-2" d="M410.6,257.1c5.7-9.1,6.2-20.3,1.5-30-21.7-44.6-63.8-76.1-130.5-76.1s-149.8,65.9-149.8,150v14.1c-.3,43.6-.6,104.3,15,184.7,1.3,7.1,7.5,12.2,14.7,12.2h165c8.3,0,15-6.7,15-15v-16.2c0-16.9,6.4-33.3,17.6-47.1,36.9-20.5,62.9-57.5,68.4-100.5,2.2-17.2-12.5-32.2-30-32.2s-27.7,10.6-29.5,24.5v-.6c-10.6,38-45.1,66-86.4,66s-90-40.3-90-90,40.3-90,90-90,60.6,17.3,76.5,43.1l-.2-1.2c11.5,23.3,40.6,23.5,52.7,4.2Z"></path><path class="cls-4" d="M84.6,29.2l-.4,12.3c-1.7,63.6,7.5,140.6,25.9,205.6,2.5-7.8,5.6-15.4,9.1-22.7,4-46.3,12.8-90.2,26.7-132.3-1.5-16.3-2.1-32.6-1.7-49l.4-12.3c.5-15.8-11.6-30.4-30-30.8-16.4,0-29.5,12.8-30,29.2Z"></path><path class="cls-3" d="M250.1,3.2c-14.5-7.3-33-1-40.3,13.4l-6.3,12.7c-23,46-38.2,94.2-47.1,142.9,13.4-13.1,29.1-23.9,46.1-32.3,8.7-11.1,17.8-22.2,27.4-33,3.6-4.1,7.4-7.6,11.1-11.6,4.8-13,10-26.8,16.3-39.2l6.3-12.7c7.5-15,1.2-33-13.4-40.2Z"></path><path class="cls-1" d="M336,128.2c6.4-5.7,12.4-11.7,19.1-17l11.1-8.8c13-10.3,15.1-29.2,4.8-42.2-10-12.6-29.6-14.8-42.2-4.8l-11.1,8.8c-21.1,16.7-41.9,36.7-61.9,58.9,8.5-1.2,17.1-2.1,25.9-2.1,19.4,0,37.5,2.5,54.3,7.2Z"></path></g></g></g></svg>