<svg xmlns="http://www.w3.org/2000/svg" xmlns:xlink="http://www.w3.org/1999/xlink" viewBox="0 0 512 512"><defs><style>      .cls-1 {        fill: url(#Degradado_sin_nombre_6);      }      .cls-2 {        fill: url(#Degradado_sin_nombre_6-4);      }      .cls-3 {        fill: url(#Degradado_sin_nombre_6-8);      }      .cls-4 {        fill: url(#Degradado_sin_nombre_6-3);      }      .cls-5 {        fill: url(#Degradado_sin_nombre_6-5);      }      .cls-6 {        fill: url(#Degradado_sin_nombre_6-6);      }      .cls-7 {        fill: url(#Degradado_sin_nombre_6-7);      }      .cls-8 {        fill: url(#Degradado_sin_nombre_6-2);      }    </style><linearGradient id="Degradado_sin_nombre_6" data-name="Degradado sin nombre 6" x1="73.1" y1="315.4" x2="122.3" y2="315.4" gradientUnits="userSpaceOnUse"><stop offset="0" stop-color="#D4AF37"></stop><stop offset="1" stop-color="#C5A028"></stop></linearGradient><linearGradient id="Degradado_sin_nombre_6-2" data-name="Degradado sin nombre 6" x1="162.9" y1="414.8" x2="231.2" y2="414.8" xlink:href="#Degradado_sin_nombre_6"></linearGradient><linearGradient id="Degradado_sin_nombre_6-3" data-name="Degradado sin nombre 6" x1="59.6" y1="381.9" x2="200.7" y2="381.9" xlink:href="#Degradado_sin_nombre_6"></linearGradient><linearGradient id="Degradado_sin_nombre_6-4" data-name="Degradado sin nombre 6" x1="0" y1="215.8" x2="137.7" y2="215.8" xlink:href="#Degradado_sin_nombre_6"></linearGradient><linearGradient id="Degradado_sin_nombre_6-5" data-name="Degradado sin nombre 6" x1="245.6" y1="444.2" x2="347.7" y2="444.2" xlink:href="#Degradado_sin_nombre_6"></linearGradient><linearGradient id="Degradado_sin_nombre_6-6" data-name="Degradado sin nombre 6" x1="284.6" y1="182.3" x2="374.6" y2="182.3" xlink:href="#Degradado_sin_nombre_6"></linearGradient><linearGradient id="Degradado_sin_nombre_6-7" data-name="Degradado sin nombre 6" x1="387.8" y1="62" x2="512" y2="62" xlink:href="#Degradado_sin_nombre_6"></linearGradient><linearGradient id="Degradado_sin_nombre_6-8" data-name="Degradado sin nombre 6" x1="114.3" y1="211.3" x2="490" y2="211.3" xlink:href="#Degradado_sin_nombre_6"></linearGradient></defs><g><g id="Capa_1"><g><path class="cls-1" d="M77.5,345.4l3.7,3.7c10.6-12.6,22.9-26.2,37.9-41.2,1.1-1.1,2.1-1.6,3.2-2.5l-23.6-23.6c-13.7,24.8-21.7,41.8-24,46.3-2.9,5.8-1.8,12.8,2.8,17.3Z"></path><path class="cls-8" d="M204,392.8c-15,15-28.6,27.4-41.1,38l5,5c4.6,4.6,11.7,5.7,17.5,2.7,7.8-4,20-9.8,45.9-24.2l-24.7-24.7c-1,1.1-1.5,2.2-2.6,3.2Z"></path><path class="cls-4" d="M196,315.9h0c-10.8-10.9-41.3-1.1-55.6,13.2-47.9,47.9-69.5,81.9-79.3,101.9-2.8,5.7-1.6,12.6,2.9,17.1,4.5,4.5,11.4,5.7,17.2,2.9,19.6-9.5,53.2-31.1,101.6-79.5,15.7-15.8,23.5-45.3,13.2-55.6Z"></path><path class="cls-2" d="M75.6,262c19.3-34.4,40.1-66,62.1-94.7-12.7-8.2-54.8-3.6-90.8,32.5L4.4,242.1c-4.8,4.8-5.8,12.2-2.4,18.1,3.3,5.8,10.3,8.8,16.9,7,22.9-6.1,43.1-8.7,56.7-5.3Z"></path><path class="cls-5" d="M250,438.1c2.1,11.8.7,23.2-4.2,56.7-1,6.5,2.4,12.7,8.1,15.6,5.8,2.9,12.8,1.8,17.3-2.8l42.4-42.4c32.8-32.9,38.6-75.2,31.2-88.7-32,24.2-64.5,44.5-94.8,61.6Z"></path><path class="cls-6" d="M297.8,150.5c-17.5,17.5-17.5,46.1,0,63.6,17.5,17.5,46.1,17.5,63.6,0s17.5-46.1,0-63.6-46.1-17.5-63.6,0Z"></path><path class="cls-7" d="M511.1,14.6c-.5-7.4-6.4-13.3-13.8-13.8-36.8-2.8-73.5,1.8-109.5,12.8,2.7,24.7,15.5,51.5,37.3,73.3,22.1,22.1,49.6,34.9,74.7,37.2,9.7-33.9,14.3-70.3,11.3-109.4Z"></path><path class="cls-3" d="M358.8,24c-90.1,36.9-176.3,117.6-244.4,230.9l33.9,33.9c23.1-9.4,51.2-11.9,69,5.9,17.8,17.8,15.3,45.9,5.9,69l35,35c87.2-52.6,188.7-135.3,231.9-245.5-29.9-4.5-60.7-19.8-86.1-45.1s-40.2-54.9-45.1-84ZM382.7,235.3c-29.2,29.2-76.8,29.2-106.1,0-29.2-29.2-29.2-76.8,0-106.1s76.8-29.2,106.1,0,29.2,76.8,0,106.1Z"></path></g></g></g></svg>