<svg xmlns="http://www.w3.org/2000/svg" xmlns:xlink="http://www.w3.org/1999/xlink" viewBox="0 0 512 512"><defs><style>      .cls-1 {        fill: url(#Degradado_sin_nombre_6);      }    </style><linearGradient id="Degradado_sin_nombre_6" data-name="Degradado sin nombre 6" x1="26" y1="255" x2="486" y2="255" gradientUnits="userSpaceOnUse"><stop offset="0" stop-color="#D4AF37"></stop><stop offset="1" stop-color="#C5A028"></stop></linearGradient></defs><g><g id="Layer_1"><path class="cls-1" d="M483.8,133.1c0-5.1-2.6-7.7-7.7-10.2L258.6,2.6C258.6,0,253.4,0,248.3,2.6L33.3,125.4c-2.6,0-5.1,5.1-5.1,7.7-5.1,43.5-20.5,294.4,222.7,376.3h7.7c245.8-81.9,230.4-332.8,225.3-376.3h0ZM373.8,225.3l-125.4,125.4c-10.2,10.2-25.6,10.2-35.8,0l-48.6-48.6c-10.2-10.2-10.2-25.6,0-35.8,10.2-10.2,25.6-10.2,35.8,0l30.7,28.2,107.5-107.5c10.2-10.2,25.6-10.2,35.8,0s10.2,28.2,0,38.4h0Z"></path></g></g></svg>