<svg width="162" xmlns="http://www.w3.org/2000/svg" height="40" id="screenshot-1cd32a24-47e5-8044-8005-0cca895ac644" fill="none" version="1.1"><style>@font-face{font-family:&apos;Montserrat&apos;;font-style:normal;font-weight:400;font-display:block;src:url(https://design.penpot.app/internal/gfonts/font/montserrat/v26/JTUHjIg1_i6t8kCHKm4532VJOt5-QNFgpCtr6Hw0aXpsog.woff2) format(&apos;woff2&apos;);unicode-range:U+0460-052F, U+1C80-1C88, U+20B4, U+2DE0-2DFF, U+A640-A69F, U+FE2E-FE2F}@font-face{font-family:&apos;Montserrat&apos;;font-style:normal;font-weight:400;font-display:block;src:url(https://design.penpot.app/internal/gfonts/font/montserrat/v26/JTUHjIg1_i6t8kCHKm4532VJOt5-QNFgpCtr6Hw9aXpsog.woff2) format(&apos;woff2&apos;);unicode-range:U+0301, U+0400-045F, U+0490-0491, U+04B0-04B1, U+2116}@font-face{font-family:&apos;Montserrat&apos;;font-style:normal;font-weight:400;font-display:block;src:url(https://design.penpot.app/internal/gfonts/font/montserrat/v26/JTUHjIg1_i6t8kCHKm4532VJOt5-QNFgpCtr6Hw2aXpsog.woff2) format(&apos;woff2&apos;);unicode-range:U+0102-0103, U+0110-0111, U+0128-0129, U+0168-0169, U+01A0-01A1, U+01AF-01B0, U+0300-0301, U+0303-0304, U+0308-0309, U+0323, U+0329, U+1EA0-1EF9, U+20AB}@font-face{font-family:&apos;Montserrat&apos;;font-style:normal;font-weight:400;font-display:block;src:url(https://design.penpot.app/internal/gfonts/font/montserrat/v26/JTUHjIg1_i6t8kCHKm4532VJOt5-QNFgpCtr6Hw3aXpsog.woff2) format(&apos;woff2&apos;);unicode-range:U+0100-02AF, U+0304, U+0308, U+0329, U+1E00-1E9F, U+1EF2-1EFF, U+2020, U+20A0-20AB, U+20AD-20C0, U+2113, U+2C60-2C7F, U+A720-A7FF}@font-face{font-family:&apos;Montserrat&apos;;font-style:normal;font-weight:400;font-display:block;src:url(https://design.penpot.app/internal/gfonts/font/montserrat/v26/JTUHjIg1_i6t8kCHKm4532VJOt5-QNFgpCtr6Hw5aXo.woff2) format(&apos;woff2&apos;);unicode-range:U+0000-00FF, U+0131, U+0152-0153, U+02BB-02BC, U+02C6, U+02DA, U+02DC, U+0304, U+0308, U+0329, U+2000-206F, U+2074, U+20AC, U+2122, U+2191, U+2193, U+2212, U+2215, U+FEFF, U+FFFD}</style><g id="shape-1cd32a24-47e5-8044-8005-0cca895ac644" data-testid="Sever-Less"><g class="fills" id="fills-1cd32a24-47e5-8044-8005-0cca895ac644"><rect rx="0" ry="0" width="162" height="40" class="frame-background"/></g><g class="frame-children"><g id="shape-1cd32a24-47e5-8044-8005-0cc9912253bd" data-testid="001-servidor" xml:space="preserve" style="fill: rgb(0, 0, 0);"><g id="shape-1cd32a24-47e5-8044-8005-0cc99128c96a" data-testid="svg-path"><path d="M36.364 0H3.636A3.64 3.64 0 0 0 0 3.636v5.455a3.64 3.64 0 0 0 3.636 3.636h32.728A3.64 3.64 0 0 0 40 9.091V3.636A3.64 3.64 0 0 0 36.364 0ZM7.273 8.182a.909.909 0 0 1-1.818 0V4.545a.908.908 0 1 1 1.818 0v3.637Zm3.636 0a.909.909 0 0 1-1.818 0V4.545a.908.908 0 1 1 1.818 0v3.637Zm3.636 0a.908.908 0 1 1-1.818 0V4.545a.909.909 0 0 1 1.818 0v3.637Zm12.728 0a1.82 1.82 0 0 1-1.818-1.818 1.82 1.82 0 0 1 1.818-1.819 1.82 1.82 0 0 1 1.818 1.819 1.82 1.82 0 0 1-1.818 1.818Zm5.454 0a1.82 1.82 0 0 1-1.818-1.818 1.82 1.82 0 0 1 1.818-1.819 1.82 1.82 0 0 1 1.818 1.819 1.82 1.82 0 0 1-1.818 1.818Z" style="fill: rgb(0, 0, 0); fill-opacity: 1;" class="fills" id="fills-1cd32a24-47e5-8044-8005-0cc99128c96a"/></g><g id="shape-1cd32a24-47e5-8044-8005-0cc9912a756a" data-testid="svg-path"><path d="M36.364 13.636H3.636A3.64 3.64 0 0 0 0 17.273v5.454a3.64 3.64 0 0 0 3.636 3.637h32.728A3.64 3.64 0 0 0 40 22.727v-5.454a3.64 3.64 0 0 0-3.636-3.637ZM7.273 21.818a.908.908 0 1 1-1.818 0v-3.636a.908.908 0 1 1 1.818 0v3.636Zm3.636 0a.908.908 0 1 1-1.818 0v-3.636a.908.908 0 1 1 1.818 0v3.636Zm3.636 0a.908.908 0 1 1-1.818 0v-3.636a.908.908 0 1 1 1.818 0v3.636Zm12.728 0A1.82 1.82 0 0 1 25.455 20a1.82 1.82 0 0 1 1.818-1.818A1.82 1.82 0 0 1 29.091 20a1.82 1.82 0 0 1-1.818 1.818Zm5.454 0A1.82 1.82 0 0 1 30.909 20a1.82 1.82 0 0 1 1.818-1.818A1.82 1.82 0 0 1 34.545 20a1.82 1.82 0 0 1-1.818 1.818Z" style="fill: rgb(0, 0, 0); fill-opacity: 1;" class="fills" id="fills-1cd32a24-47e5-8044-8005-0cc9912a756a"/></g><g id="shape-1cd32a24-47e5-8044-8005-0cc9912be619" data-testid="svg-path"><path d="M36.364 27.273H3.636A3.64 3.64 0 0 0 0 30.909v5.455A3.64 3.64 0 0 0 3.636 40h32.728A3.64 3.64 0 0 0 40 36.364v-5.455a3.64 3.64 0 0 0-3.636-3.636ZM7.273 35.454a.91.91 0 1 1-1.818 0v-3.636a.908.908 0 1 1 1.818 0v3.636Zm3.636 0a.91.91 0 1 1-1.818 0v-3.636a.908.908 0 1 1 1.818 0v3.636Zm3.636 0a.909.909 0 1 1-1.818 0v-3.636a.909.909 0 0 1 1.818 0v3.636Zm12.728 0a1.82 1.82 0 0 1-1.818-1.818 1.82 1.82 0 0 1 1.818-1.818 1.82 1.82 0 0 1 1.818 1.818 1.82 1.82 0 0 1-1.818 1.818Zm5.454 0a1.82 1.82 0 0 1-1.818-1.818 1.82 1.82 0 0 1 1.818-1.818 1.82 1.82 0 0 1 1.818 1.818 1.82 1.82 0 0 1-1.818 1.818Z" style="fill: rgb(0, 0, 0); fill-opacity: 1;" class="fills" id="fills-1cd32a24-47e5-8044-8005-0cc9912be619"/></g></g><g class="text-container" id="shape-1cd32a24-47e5-8044-8005-0cca59d73927" data-testid="Serverless Architecture"><defs><pattern patternUnits="userSpaceOnUse" x="48" y="0" width="87.267" height="34.8" id="fill-0-render-42-0"><rect width="87.267" height="34.8" style="fill: rgb(255, 255, 255); fill-opacity: 1;"/></pattern><pattern patternUnits="userSpaceOnUse" x="48" y="0" width="87.267" height="34.8" id="fill-1-render-42-0"><rect width="87.267" height="34.8" style="fill: rgb(255, 255, 255); fill-opacity: 1;"/></pattern></defs><text x="48" y="17.4" dominant-baseline="ideographic" textLength="73.767" lengthAdjust="spacingAndGlyphs" style="text-transform: none; font-family: Montserrat; letter-spacing: normal; font-style: normal; font-weight: 400; white-space: pre; font-size: 14px; text-decoration: rgb(255, 255, 255); direction: ltr; fill: rgb(255, 255, 255); fill-opacity: 1;" class="fills" id="fills-1cd32a24-47e5-8044-8005-0cca59d73927">Serverless </text><defs><pattern patternUnits="userSpaceOnUse" x="48" y="0" width="87.267" height="34.8" id="fill-0-render-42-1"><rect width="87.267" height="34.8" style="fill: rgb(255, 255, 255); fill-opacity: 1;"/></pattern><pattern patternUnits="userSpaceOnUse" x="48" y="0" width="87.267" height="34.8" id="fill-1-render-42-1"><rect width="87.267" height="34.8" style="fill: rgb(255, 255, 255); fill-opacity: 1;"/></pattern></defs><text x="48" y="34.2" dominant-baseline="ideographic" textLength="87.267" lengthAdjust="spacingAndGlyphs" style="text-transform: none; font-family: Montserrat; letter-spacing: normal; font-style: normal; font-weight: 400; white-space: pre; font-size: 14px; text-decoration: rgb(255, 255, 255); direction: ltr; fill: rgb(255, 255, 255); fill-opacity: 1;" class="fills">Architecture</text></g></g></g></svg>